<svg version="1.2" xmlns="http://www.w3.org/2000/svg" viewBox="0 0 241 249" width="100" height="100"><style>.a{opacity:.93;fill:#fdfdfd}.b{opacity:.88;fill:#fafafc}.c{opacity:.93;fill:#fbfcfc}.d{opacity:.87;fill:#fbfcfc}.e{opacity:.94;fill:#fcfcfd}.f{opacity:.92;fill:#fbfcfc}.g{opacity:.93;fill:#fbfbfc}.h{opacity:.92;fill:#fcfcfc}.i{opacity:.93;fill:#fcfcfc}.j{opacity:.85;fill:#fdfdfd}.k{opacity:.91;fill:#fbfcfc}.l{opacity:.91;fill:#fdfdfd}</style><path fill-rule="evenodd" class="a" d="m10.5 129.5q3.8-0.6 6.5 2 0.7 47 0.5 94 102.3 0 205 0-0.3-22.5 0.5-45 5.2-5.6 8 0 1 26 0 52-0.8 0.8-1.5 1.5-4.4 0.3-8.5 1.5-105.1-1.2-210.5-1.5-0.8-0.8-1.5-1.5-1-50.5 0-101 1.1-0.8 1.5-2z"/><path fill-rule="evenodd" class="b" d="m224.5 121.5q1.7 3.7 0.5 8-7.7 3.7-15.5 7-0.2-3.5 0.5-7 7.5-3.9 14.5-8z"/><path fill-rule="evenodd" class="c" d="m201.5 137.5q4.5 0 9 0-0.6 12.6 1.5 25 5.5 5.4 12 1 2.1-12.9 1.5-26 5 0 10 0 0 18.5 0 37-4.8 0.7-10 0 0.2-1.6-0.5-3-11.3 6.7-21-2-1.9-3.3-3-7-1.2-12.6 0.5-25z"/><path fill-rule="evenodd" class="d" d="m176.5 137.5q4.5-0.2 9 0.5 1 1.6 1.5 3.5 4-5.1 10.5-4 0 5 0 10-3.5-0.2-7 0.5-2.7 0.8-3.5 3.5-0.5 11-1 22-4.6 1.7-9.5 0.5-1.8-18.3 0-36.5z"/><path fill-rule="evenodd" class="c" d="m147.5 137.5q7.5 0.2 14.5 0 2 4 6 6 4.9 7.3 2.5 15.5-12.5 0.3-25 1.5 5.7 9.9 14 2.5 5.5-1 11 0-7.9 15.8-25 10-13.7-8.1-9.5-23.5 3.1-8.8 11.5-12zm-2 14q8 1.7 16 0.5-2.7-6.6-10-6.5-4.4 1.4-6 6z"/><path fill-rule="evenodd" class="e" d="m96.5 137.5q4-0.2 8 0.5 1 1.6 1.5 3.5 1.8-2.3 4.5-3.5 20.6-2.9 23 18-4.1 25.2-27.5 15.5-0.7 9-0.5 18-4.5 0-9 0 0-26 0-52zm9.5 23q1.2 3.3 4.5 4.5 8.3 2.7 11.5-5.5 2.6-13.9-11.5-13-7 5.2-4.5 14z"/><path fill-rule="evenodd" class="f" d="m211.5 80.5q8.7-1.4 15.5 4 0.5-1.9 1.5-3.5 4.5-0.7 9-0.5 0 18.5 0 37-4.5 0.2-9-0.5-1-1.6-1.5-3.5-1.8 2.3-4.5 3.5-17.6 3.9-22.5-13.5-2.1-15.7 11.5-23zm4 27.5q8.4 2.7 11.5-5.5 1.9-13.4-11.5-13-11.6 9.3 0 18.5z"/><path fill-rule="evenodd" class="g" d="m177.5 80.5q4.5-0.2 9 0.5 1 1.6 1.5 3.5 4.4-4.3 10.5-4 0 5 0 10-4.9 0.3-9.5 2-1.9 11.9-2 24-4.6 1.4-9.5 1 0-18.5 0-37z"/><path fill-rule="evenodd" class="h" d="m134.5 68.5q5 0 10 0-0.2 8 0.5 16 9.7-7 20.5-1.5 12.4 13.7 2.5 29.5-11.1 9.4-23 1-0.7 1.9-0.5 4-4.8 0.4-9 0-1.5-24.5-1-49zm15 39.5q9.5 2.7 12.5-6.5 1-13.3-12.5-12-9.9 9.3 0 18.5z"/><path fill-rule="evenodd" class="i" d="m106.5 80.5q24.3-2.2 23 22-12.5 0-25 0 2.8 9.2 12 5.5 5.7-5.7 13-2-7.4 15.2-24 11-15.8-8.3-10.5-25.5 3.7-7.9 11.5-11zm-1.5 12q-0.7 1.4-0.5 3 7.5 0 15 0-1.7-7.9-10-7-2 2.2-4.5 4z"/><path fill-rule="evenodd" class="j" d="m79.5 68.5q4.9-0.4 9.5 1 1.2 23.9-0.5 47.5-4.5 1-9 0-0.8-0.8-1-2 1.2-23 1-46.5z"/><path fill-rule="evenodd" class="k" d="m51.5 80.5q24.2-2.2 22 21.5-12.5 0.5-25 1 6.2 10.9 15 2 4.5-1 9 0 1.6 2.3-0.5 4.5-8 11.2-21.5 7.5-12.3-4.6-12-18-0.6-9 6-15 3.6-1.8 7-3.5zm-3 14q7.4 1.5 15 1 0.3-2.5-1-4.5-4.1-2.9-9-2.5-3.5 2-5 6z"/><path fill-rule="evenodd" class="k" d="m13.5 80.5q11.5-2.1 19.5 6 2.1 3.2 2.5 7-7.6 1.2-13-3.5-11.2-3.4-12 9 0.6 11.8 12 9 4.5-4.3 11-4.5 1.5 0.5 2 2-7.5 17.9-26 10.5-15.2-13.2-4.5-30.5 4-3.1 8.5-5z"/><path fill-rule="evenodd" class="l" d="m8.5 18.5q0.2-2.6 1-5 0.6-1.1 2-1.5 108.5-1 217 0 1.4 0.6 2.5 1.5 1 28.5 0 57-4.7 4.3-8-1-0.3-21.4-1.5-42.5 1.4-3.1 1-6.5-102.5 0-205 0-0.4 20.3 1 40.5-0.9 4.7-1.5 9.5-4 4-8 0-0.7-26-0.5-52z"/></svg>