<svg version="1.2" xmlns="http://www.w3.org/2000/svg" viewBox="0 0 497 502" width="100" height="100"><style></style><path  d="m201.4 13.6c-16.8 2-30.4 5-45.4 10-85.7 28.5-144 106.2-147.7 196.9-4.2 103.4 67.2 196.4 167.8 218.9 73.7 16.5 148.6-5.1 201.4-57.9 33-33 53.7-74.4 61.1-122.5 2.5-15.8 2.5-45.3 0-61-7.4-47.1-26.6-86.4-58.1-118.9-19.7-20.3-36.1-32.3-60-44.1-37.7-18.6-80-26.2-119.1-21.4zm42.1 3.9c8.3 0.8 16.6 1.7 18.5 2 7.2 1.3 30.6 7.7 34.5 9.5 2.2 1 5.1 2.1 6.5 2.5 1.4 0.4 5 2 8.2 3.5 3.1 1.6 6.6 3.1 7.9 3.5 1.2 0.4 5.6 2.7 9.7 5.1 4 2.4 7.6 4.4 7.8 4.4 0.6 0 18.3 12.7 24.4 17.5 1.4 1.1 7.5 6.9 13.5 13 17.3 17.1 29.2 33.8 40.2 55.9 16.5 33.5 24.4 72.8 21.6 107.6-0.6 8-1.6 17.2-2.2 20.5-1.8 9.3-5.3 24.8-6.1 27-0.4 1.1-2.2 6.3-4 11.5-6.5 19.1-22.7 48-34.6 62-6.7 7.8-27.1 27.7-33 32.2-5.4 4-22.4 15.8-22.9 15.8-0.1 0-4.2 2.2-9.1 4.9-13.6 7.6-38.2 16.7-55.6 20.6-23.3 5.2-62.8 5.4-85.8 0.4-2.5-0.5-5.4-1.1-6.5-1.4-5.6-1.2-21.4-5.8-24.2-7.1-1.8-0.8-6.2-2.6-9.7-3.9-14.1-5.3-33.5-16.5-49.2-28.5-6.8-5.1-34.4-32.2-34.4-33.7 0-0.6-0.7-1.6-1.5-2.3-5.1-4.2-28.5-44.1-28.5-48.6 0-0.8-0.5-1.4-1.2-1.4-0.6 0-0.9-0.3-0.5-0.6 0.3-0.3-0.3-2.9-1.5-5.8-5.1-12.8-7.7-22.8-11.3-43.1-4-23.3-2.9-54.9 3-79.8 8.1-34.1 23.6-64.8 46.1-90.7 9.5-11 23.3-24.4 30-29 11.6-8 15-10.4 15.4-11 0.3-0.3 3-1.9 6-3.4 3-1.6 6.2-3.4 7.1-4.2 0.8-0.8 1.9-1.4 2.3-1.4 0.3 0 3.8-1.6 7.7-3.5 3.9-1.9 10.1-4.6 13.9-5.9 3.8-1.4 7.7-3 8.7-3.5 2-1.2 18.5-5.7 28.2-7.7 5.6-1.2 10.5-1.8 31.1-3.7 7.7-0.8 15.2-0.6 29.5 0.8z"/><path  d="m69.9 91c-4.5 2.4-8.6 7.1-11.3 13-1.9 4.3-2.1 7.2-3 53.1-0.5 29.3-0.5 67.4 0 96l0.9 47.4 2.5 5c6.5 13 19.4 15.2 28.5 4.7 5.9-6.6 5.9-6.8 6.3-67.1 0.2-30.9 0.7-56.2 1.2-57 0.5-0.9 1-1.1 1-0.4 0 0.7 3.4 8.3 7.6 17 4.2 8.7 9.8 20.3 12.4 25.8 4.5 9.5 13.3 27.6 27 56 3.5 7.1 7.2 14.3 8.4 16 1.2 1.6 2.1 3.3 2.1 3.6 0 0.3 1.1 2 2.5 3.8 5 6.4 14.6 10.2 22.4 8.7 4-0.8 10.5-6.4 12.9-11.2 3.3-6.4 3.7-15.6 3.7-79.7 0-35 0.4-63.7 0.8-63.7 1.1 0 2.4 5.7 7.3 33.5 2.2 12.6 5.3 30 6.9 38.5 1.6 8.5 3.6 19.3 4.4 24 3.6 20.8 6.9 36.5 9.4 44.5 1.5 4.8 7.8 12.4 12.6 15 1.8 1 1.7 1.2-1 4.2-1.6 1.8-4 6-5.3 9.5-4.2 11-4.8 10.2-2.5-3.4 0.5-3.1 0.2-4.1-1.9-6.2-4.2-4.2-8.3-3.2-12.2 2.7l-1.8 2.8-1.8-3c-3.9-6.5-9.3-6.8-14.3-0.9-2 2.3-3.6 3.7-3.6 3.1 0-0.7-1.2-2.5-2.6-4.2-2.9-3.4-6.7-4.1-9.4-1.6-1.5 1.4-2 1.3-4.5-0.6-2.6-2.2-2.8-2.2-5.9-0.5-2.9 1.5-3.4 1.6-6.4 0.1-2.6-1.3-5.7-1.6-15.2-1.3-11.1 0.3-12.1 0.5-13.5 2.5-1.9 2.7-2.6 2.8-6.8 0.9-11.1-5-18.5-4.2-26.2 2.9-1.8 1.7-3.1 2.3-3.3 1.6-1.1-3.2-5.5-7.1-8.2-7.1-3.5 0-7 4.1-7 8.1 0 4-1.3 3.6-4.9-1.3-4.4-5.9-7.6-7.9-11.2-6.6-5.2 1.8-5.9 4.2-5.9 21.3 0 15.2 0.1 15.6 2.5 18 4.6 4.7 9.8 2.3 12.1-5.4l1-3.6 3 4.2c3.2 4.5 7.1 7.3 10.2 7.3 2.4 0 7.2-3.7 7.2-5.5 0-2.6 1.9-2.5 4.7 0.1 1.5 1.4 4.1 3.3 5.7 4.1 3.7 1.9 13.1 1.9 17.7-0.1 7.8-3.3 12.6-12.3 11.7-21.8-0.4-3.5-0.1-4.8 1-5.3 3.3-1.2 4.2 1.4 4.2 12.5 0 10 0.2 10.9 2.5 13.4 2.8 3.1 6.4 3.3 9.6 0.7 2.2-1.8 2.4-2.8 2.7-13.3 0.2-6.2 0.8-11.9 1.4-12.6 0.6-0.6 2.2-1.2 3.7-1.2h2.6v11.9c0 11.3 0.1 12.1 2.4 14.5 1.5 1.6 3.5 2.6 5.2 2.6 3.9 0 7.9-5.4 7.9-10.5 0-4.4 1.2-3.8 2.9 1.5 1.6 5.1 5.6 9 9.1 9 3.5 0 6.3-2.5 8.6-7.7l1.6-3.8 1.8 3.9c3.5 7.6 9.3 9.6 14.1 5l2.8-2.7 3.1 2.7c4.3 3.6 6.6 3.3 10.9-1.4 4.7-5.2 8.9-5.5 12.1-1 3.2 4.6 5.6 5.5 10.2 3.9 2.9-0.9 4.1-1 5-0.1 2 2 4.8 1.4 7.9-1.7 1.8-1.9 2.9-4 2.9-5.7 0-2.7 0.2-2.6 5.4 2.9 6.3 6.6 9.7 7.4 14.1 3.3l2.6-2.4 2.4 2.4c4.7 4.7 10.6 1.7 12.3-6.1 0.6-3.2 1-3.6 1.9-2.4 6.4 7.9 9.8 10.9 12.4 10.9 1.5 0 3-0.4 3.3-0.9 0.4-0.6 2-0.6 4.1 0 4.2 1.2 6.5 0.2 9.5-4.1 1.7-2.4 2.8-3 6-3 3 0 4 0.5 4.5 2 0.9 2.7 5.3 6 8.1 6 2.8 0 6.4-4.4 6.4-7.9-0.1-3.6-10.6-29-13-31.3-1.1-1-3.2-2.3-4.6-2.9l-2.7-1 3.4-2.3c1.9-1.3 4.6-4.1 6-6.3 4.4-6.6 5.3-10.3 13-51.8 1.1-6.1 2.4-13 2.9-15.5 0.4-2.5 1.6-9 2.5-14.5 0.9-5.5 2-11.8 2.6-14 0.5-2.2 1.6-8.1 2.5-13 0.9-5 2.6-14.9 3.9-22 1.3-7.2 3.1-17.1 3.9-22 0.9-5 1.9-10.2 2.2-11.5 2.1-9.4 4.4-28.3 4-33-0.6-6.8-2.4-10.4-7.4-15.3-3.5-3.4-4.5-3.9-9.3-4-5.7-0.1-11.9 2.5-11.9 5 0 0.7-0.5 1.3-1 1.3-1.8 0-4.8 8.4-6.9 19.7-1.1 5.9-5.5 32.1-9.7 58-7.2 43.9-8.5 50.5-9.7 49.3-0.3-0.3-1.5-5.5-2.7-11.5-1.1-6.1-3-15.1-4.1-20-1.7-7.8-12.3-60.5-13.5-67.5-4.3-23.4-10.8-33.2-23.2-34.7-4-0.4-6-0.1-10.3 1.9-9.3 4.2-13.2 12.1-17.9 36.3-1.2 6-3.2 16.2-4.6 22.5-1.3 6.3-2.8 14.2-3.3 17.5-0.6 3.3-1.7 9.4-2.6 13.5-0.8 4.1-2 9.7-2.5 12.5-6.6 32.6-6.3 31.5-7.7 29-0.6-1.1-1.4-4.7-1.7-8-0.4-3.3-1.1-7.6-1.6-9.5-0.5-1.9-1.1-5.9-1.4-8.8-0.4-2.9-1.3-8.7-2.1-13-0.8-4.2-2.3-13.6-3.5-20.7-1.1-7.2-2.7-16.8-3.5-21.5-1.4-7.5-3.9-22.6-4.9-28.7-0.7-4.5-4.1-15.3-4.8-15.3-0.5 0-0.8-0.6-0.8-1.4 0-2.6-6.7-5.8-12.4-6-4.7-0.1-5.8 0.3-9.9 3.7l-4.6 3.8-3.7-4.1c-4.7-5.2-8.2-7-13.4-7-5.2 0-9.2 2.1-12.5 6.5-5.8 7.5-5.8 8-6.4 70l-0.6 57-3.1-5.5c-2.9-5.3-6.1-11.7-19.9-40.5-3.5-7.2-10.8-22.2-16.2-33.5-5.5-11.3-12.5-25.7-15.5-32.1-5.7-12-11.1-18.9-16.2-20.9-4.2-1.6-11.7-1.1-15.7 1zm16.3 3.8c4.2 2.8 6.4 6.2 13.7 21.4 7.2 15 11.3 23.4 41 84.6 10 20.6 18.4 38.5 18.7 39.8 0.3 1.3 1.1 2.4 1.6 2.4 0.7 0 0.9-20.7 0.5-62.4-0.3-34.4-0.1-65.6 0.4-69.5 0.9-7.8 3.7-14.1 7.1-16.5 1.3-0.9 4.3-1.6 6.9-1.6 6 0 10 3.1 12.6 9.8 1.7 4.4 1.8 10.2 1.8 99.7v95l-3 5.9c-3.8 7.5-7.7 9.9-15.2 9.3-6.4-0.4-11.1-3.8-16-11.5-2-3-9.9-18.6-17.6-34.6-7.7-16-20.8-43.3-29.2-60.8-8.4-17.4-16.1-33.7-17-36.2-1-2.5-2-4.6-2.4-4.6-0.3 0-0.6 29.8-0.6 66.2 0 74.2 0.2 72.4-7.1 78.8-6.3 5.5-15.1 3.2-19.6-5.2l-2.3-4.3v-96-96l2.2-4c2.8-4.9 4-6.4 7.7-9.3 3.7-2.8 11.8-3 15.8-0.4zm130.4 3.6c3.5 4 5.9 13.2 9.8 36.8 10.3 62.3 16.6 100.9 17.2 105.5 0.4 2.9 1 5.3 1.4 5.3 0.4 0 1-2.3 1.3-5.1 1-8.5 22.9-119.1 25.3-127.9 1.9-6.9 7.1-14.2 11.7-16.3 4.8-2.3 12.4-2.2 16.3 0.2 3.7 2.3 7.8 7.3 9.8 12.2 1.2 3 10.5 47.1 15.6 74.4 2.1 10.8 7.3 37.2 8.9 44.5 0.6 2.5 1.5 7.8 2.2 11.9 1.2 7.6 2.8 8.2 2.9 1.1 0-1.9 1.4-11.6 3.1-21.5 1.7-9.9 3.5-20.9 4-24.5 0.5-3.6 2.7-17.1 4.9-30 2.1-12.9 5.1-30.7 6.5-39.4 3.9-23.4 7.2-29.5 16.2-30.3 5.9-0.6 10.6 2.2 14 8.2 3.8 6.7 3.3 14.3-3.3 49.5-1.3 7.4-3.1 17.1-3.9 21.5-0.8 4.4-2.8 15.4-4.4 24.5-4.8 25.5-9.9 53.8-13.2 72.5-4.9 27.7-7.2 35-13.2 40.2-2 1.7-5 3.4-6.7 3.8-3.8 0.8-9.7-0.1-12.7-2.1-3.4-2.1-8-9.5-9.7-15.5-1.3-4.5-11.2-53.4-26.4-130.4-1.9-9.8-3.1-14.1-3.5-12.5-0.3 1.4-1 5.2-1.6 8.5-2 11.2-6.1 31.9-9 46-1.7 7.7-4.1 20.1-5.6 27.5-2.6 13.6-5.3 26.9-10.1 49.2-1.5 6.8-3.6 14.5-4.9 17.3-8 17.9-27.1 16.2-33.8-3-1.4-4-12.3-60.9-19.8-103.5-0.4-2.5-2.4-13.5-4.4-24.5-7.2-40-7.7-43.1-7.8-55-0.2-13.4 0.6-16 6.6-20.3 4.6-3.3 13-2.7 16.3 1.2zm76.4 75.6c0 1.1 0.5 3.9 1.1 6.2 1.4 5.9 6.6 32 9 45.3 1.1 6 2.6 13.7 3.3 17 0.8 3.3 1.7 7.6 2 9.5 0.3 1.9 1.7 8.9 3.1 15.5 1.4 6.6 3.4 16.5 4.5 22 3.8 19.1 11.2 28.5 22.5 28.5 4.1 0 4.2 0.2 1.4 4.1-1.1 1.6-3.8 7.3-6 12.6-2.2 5.4-4.3 10.1-4.8 10.6-0.8 0.8-7.1-6.8-7.1-8.5 0-0.4 1.5-2.3 3.4-4.1 4.7-4.7 5.2-7 2.5-10.7-3.3-4.3-7.2-4.1-12.8 0.9l-4.5 3.9-2.8-3.9c-3.3-4.5-6.8-5.1-10.4-1.8l-2.3 2.1-2.7-2.1c-1.5-1.1-3.7-2.1-4.9-2.1-3 0-6.5 4-7.2 8.3-0.6 4-0.5 4.1-6.6-3.6-3.2-3.9-4.4-4.7-7.2-4.7-2.5 0-4 0.8-5.9 3.1-2.3 2.6-2.6 4-2.6 10 0 3.8-0.4 6.9-0.9 6.9-0.8 0-6.1-10.9-6.1-12.8 0-0.5-1.3-2.4-2.9-4.1l-2.9-3.1 4.3-1.9c5.3-2.4 9.7-6.8 12.5-12.8 2.1-4.5 2.9-7.7 7-27.3 1.1-5.2 4-19.4 6.5-31.5 2.5-12.1 5-24.9 5.6-28.4 0.5-3.5 1.2-6.7 1.5-7.2 0.3-0.5 0.9-3.2 1.4-6.1 2.1-12.2 5.9-29.8 6.6-31 1-1.5 2.4-0.8 2.4 1.2zm-221.9 149.2c1.4 1.2 10.9 15.3 14 20.8 1.3 2.3 1.4 1.5 1.9-8.9 0.4-9.6 0.8-11.6 2.3-12.5 1.5-0.9 2.1-0.7 3.3 0.8 2.1 3 2 30.8-0.2 33-0.8 0.9-1.8 1.6-2 1.6-2.2 0-5.5-3.7-11.6-12.8-3.8-5.9-7.2-10.9-7.5-11.2-0.3-0.3-0.2 3.6 0.2 8.7 1 12.6-0.3 16.5-5 14.7-1.2-0.5-1.5-3.3-1.5-16.8 0-16 0.5-18.6 3.5-18.6 0.6 0 1.8 0.6 2.6 1.2zm54.2 1.6c5.2 3 7.1 6.6 7.5 14 0.6 12-4.9 18.2-16.3 18.2-10.6 0-16.8-6.1-16.9-16.9 0-9.3 4.2-15.5 11.9-17.1 4.6-0.9 10.5-0.2 13.8 1.8zm38.8-0.6c1.4 2.2-1.2 3.8-6.2 3.8h-4.8l-0.3 14.1c-0.3 12-0.6 14.4-2 15.2-1.2 0.8-2.1 0.7-3.2-0.2-1.3-1.1-1.6-3.8-1.6-15.2v-13.8l-5.2-0.3c-4.2-0.2-5.4-0.7-5.6-2.2-0.2-1 0.1-2.1 0.6-2.5 0.6-0.3 7-0.5 14.3-0.4 9.5 0.1 13.4 0.5 14 1.5zm10.9-0.3c0.5 1.1 1 8.4 1 16.5 0 11.8-0.3 14.7-1.6 16-1.8 1.8-2.4 1.9-4.3 0.7-2-1.3-2-32.9 0-34.2 2.2-1.4 3.7-1.1 4.9 1zm11.9 0.3c0.5 1.3 1.6 6.1 2.6 10.8 0.9 4.7 1.9 9.2 2.2 10 0.3 0.8 1.8-3.4 3.4-9.5 3.1-12.3 5.5-15.3 9.7-12.7 1 0.7 4.2 10.3 6.7 20.7 0.9 3.7 1.2 2.9 3.9-9.9 2.3-10.9 4.1-13.5 7.3-10.3 1.7 1.7 1.6 2.5-2.2 17.3-4.1 16.3-5.4 18.6-9.4 16.4-2.2-1.1-3-3.4-6.2-16.7-2-8.4-3.9-11.4-3.9-6.1 0 4.9-5.3 21.9-7.2 22.9-2.7 1.5-5.6-0.6-6.7-4.9-6.3-23.9-7.1-28.6-4.8-29.5 2.5-1.1 3.8-0.6 4.6 1.5zm57.3-1c2.2 1.7 13.9 30.3 13.2 32.2-0.7 1.8-3.2 2.8-4.6 2-0.6-0.4-1.9-2.6-2.9-4.9l-1.9-4.2-6.6 0.1c-6.6 0.1-6.7 0.1-7.8 3.3-2 5.8-6.4 7.9-8 3.8-0.7-1.8 11.1-30.7 13.1-32.3 0.9-0.6 2.2-1.2 2.8-1.2 0.6 0 1.8 0.6 2.7 1.2zm26.9 3c1.7 2.4 5.2 7.8 7.7 12 2.6 4.3 4.9 7.8 5.2 7.8 0.3 0 0.6-5 0.5-11.1 0-9.3 0.3-11.3 1.7-12.2 1.2-0.8 2.1-0.7 3.2 0.2 1.3 1.1 1.6 4 1.6 17.2 0 14.6-0.1 15.9-1.9 16.9-1.1 0.5-2.7 0.7-3.6 0.3-1.8-0.6-15.5-20.7-15.5-22.6 0-0.6-0.3-0.8-0.6-0.4-0.4 0.3-0.6 5.3-0.5 11.1 0.2 9.7 0.1 10.6-1.9 11.6-4.4 2.3-5 0.2-5-17.1 0-14 0.2-15.9 1.8-16.8 2.9-1.8 4.1-1.2 7.3 3.1zm34-2c0.7 1.4 0.9 4.5 0.6 8.6l-0.7 6.5 8.4-8.9c7.3-7.7 8.7-8.8 10.3-7.8 3.3 2 2.6 4.3-2.6 9l-5.1 4.6 4.5 6.1c2.5 3.4 5.3 7.7 6.2 9.5 1.5 3 1.6 3.4 0.1 4.8-2.6 2.6-5 0.9-10.2-7.1-2.7-4.1-5.1-7.5-5.4-7.5-0.3 0-1.6 1-2.9 2.2-1.7 1.6-2.3 3.2-2.3 6.4 0 2.5-0.6 4.9-1.6 5.8-1.8 1.8-2.3 1.9-4.4 0.6-1.2-0.8-1.5-3.8-1.5-17 0-13.2 0.3-16.2 1.5-17 2.4-1.5 3.8-1.2 5.1 1.2zm44.2-1c1.6 1.3 13.7 29 13.7 31.5 0 1.6-3.7 3.6-5.1 2.7-0.6-0.3-1.9-2.5-2.8-4.8l-1.8-4.1h-6.8-6.8l-1.4 4.2c-1.5 4.4-3.7 6-5.9 4.2-2.2-1.8-1.8-3.5 4.2-18.4 5.2-13.2 7.2-16.5 9.9-16.5 0.6 0 1.9 0.6 2.8 1.2z"/><path  d="m112.1 329.4c-3.3 1.9-5 5.4-5.1 10.4-0.1 10.8 9.4 15.8 16.2 8.5 1.9-2 2.3-3.5 2.3-8.4 0-4.9-0.4-6.3-2.5-8.4-3.1-3-7.7-4-10.9-2.1zm8.5 6.1c1.7 2.7 1.4 7.6-0.7 10.2-3.1 3.7-8.9-0.3-8.9-6.1 0-6.1 6.4-8.9 9.6-4.1z"/><path  d="m240.6 331.1c-0.4 1.4-3.8 10.8-4.4 12.1-0.2 0.5 1.9 0.8 4.7 0.8 2.8 0 5.1-0.3 5.1-0.8 0-1.4-3.6-12.1-4.3-12.8-0.3-0.4-0.8-0.1-1.1 0.7z"/><path  d="m344.1 336.1c-1.2 3.5-2.1 6.7-2.1 7.1 0 0.4 2.3 0.8 5.1 0.8 4.5 0 5-0.2 4.4-1.8-0.5-0.9-1.6-3.8-2.5-6.5-0.9-2.6-1.9-5-2.2-5.3-0.3-0.3-1.5 2.3-2.7 5.7z"/></svg>