<svg xmlns="http://www.w3.org/2000/svg" width="100" height="100" version="1.2" viewBox="0 0 476 476"><style>.d{fill:#f2f2f2}.g{fill:#f3f3f3}.A{fill:#3f0000}.E{fill:#380000}.F{fill:#300}.P{fill:#350000}.Q{fill:#470101}.a9{fill:#fff}</style><path d="m353 31 2.6 1.4c14.3 8.2 27 17.4 39.2 28.6q3.1 2.8 6.3 5.5c8.1 7.2 15.2 15 21.9 23.5l2.4 3c6.5 8.1 12 16.8 17.3 25.8q1.8 3.1 3.7 6.1c14.4 24.3 21.8 51.5 26.6 79.1q.2 1.1.4 2.3c3.6 22 3 46.3-1 68.2q-.6 3.7-1.1 7.5c-2.5 15.9-7.8 30.9-13.3 46q-.4 1.2-.9 2.5c-8.9 24.3-25.3 47.4-42.9 66.2-1.9 2-3.7 4.1-5.5 6.2-35.3 40.4-90.4 64.6-142.7 71.1q-1.8.3-3.7.5c-4.3.6-8.6.7-12.9.7q-1.2.1-2.4.1c-27.3.2-52.7-2.4-79-10.3q-1.2-.4-2.5-.7c-31.7-9.7-60.8-26.7-85.1-49.1q-2.4-2.2-4.8-4.3C31.5 372.3 6 313.6 1.2 255.9 0 236.9.7 217.8 4 199q.2-1.4.5-2.8C10.8 161 24.9 127.8 46 99q.7-1 1.5-2c7.1-9.7 15.2-18.4 23.5-27q1.1-1.2 2.3-2.4c5.2-5.4 10.9-10 16.7-14.6q1.4-1.2 2.9-2.4C102.3 43.1 112.5 37 123 31l2-1.2C194.4-10.1 283.9-8 353 31" style="fill:#020101"/><path d="M224 93c4.1 1.9 7.2 4.2 9.1 8.3 2.9 8.8 4.4 17.6 5.8 26.7q.4 2.5.7 4.9l1.2 7.6c1.2 7.6 2.5 15.3 3.8 22.9q2.7 15.8 5.2 31.7.2 1.4.4 2.9.5 2.8.9 5.7c2.7 17.2 5.6 34.3 8.9 51.3 3.8-10.9 5.5-22.4 7.4-33.8 1.3-7.9 2.9-15.9 4.5-23.8q1.7-8.2 3.2-16.4c.3-1.3.3-1.3.6-2.8q.6-2.8 1.1-5.7.9-4.5 1.8-8.9c2.4-12.3 2.4-12.3 4.7-24.7l1.2-6.2 1.4-7.2c2.3-12.1 5.5-24 15.8-31.4 5.9-1.9 11.7-1.9 17.5-.1 11.1 8.1 13.4 18.6 16 31.4q.4 2.2.9 4.4c3.6 17.4 7 34.9 10.4 52.3q2.3 11.8 4.7 23.5.2 1.3.5 2.5 4.5 23 9.3 45.9h1c4.1-24.3 8-48.7 11.8-73.1 1.7-10.3 3.3-20.6 5.2-31 .9-5 1.7-10 2.4-15.1q.6-3.4 1.1-6.9.4-2.4.7-4.7c3.1-20.9 3.1-20.9 10.5-28.3 4.3-2.5 7.5-2.8 12.3-1.9 4.4 1.3 7.3 3.8 9.9 7.5 7.5 15.9.1 38.6-3.2 54.8l-2.2 11.4q-.7 3.7-1.4 7.5c-1.8 8.8-3.3 17.7-4.7 26.6-1.3 7.7-2.7 15.5-4.2 23.2-3.4 17.4-6.5 34.9-9.4 52.4-1.5 8.7-3.1 17.4-5.3 26.1-.5 2.4-.7 4.6-.8 7-.6 7.5-5.3 15.9-11 20.8-4.8 3.1-9.1 3.2-14.7 2.7-6.7-1.8-9.6-5.3-13-11-4.5-8.8-6-18.6-7.9-28.2q-.5-2.6-1-5.3-1.6-7.7-3.1-15.5-.2-1-.4-2.1-1.6-8.2-3.2-16.3c-2.2-11.5-4.4-22.9-6.7-34.4l-2-9.8q-2.8-14-5.7-28.1l-.8-4.2-1.6-7.4q-.3-1.7-.6-3.3l-.6-2.8c-.4-2.9-.5-5.7-.4-8.6h-2q-.1.8-.1 1.7c-.7 7.8-2.2 15.3-3.8 22.9q-.6 3.1-1.2 6.1-.6 2.9-1.2 5.9-1.2 5.9-2.3 11.8c-1.1 6.2-2.4 12.4-3.7 18.5q-3.3 15.7-6.3 31.4-3.2 15.9-6.4 31.7-.3 1.3-.5 2.7l-2.8 13.4q-.6 2.8-1.2 5.5c-2.2 10-6 18.4-14.5 24.4-3.9 2-8.7 1.4-13 1-3.4-1.7-3.4-1.7-6-4q-1.2-1.1-2.5-2.2c-2.8-3.2-4-6.1-5.1-10.1q-.3-1.1-.6-2.1c-2.2-7.5-3.6-15.1-5-22.7q-.4-2.4-.8-4.7-1-5.2-1.9-10.4l-3.6-19.4c-7.6-40.7-7.6-40.7-10.1-55.8-.7-4-1.4-7.9-2.5-11.9-.8-3.3-1.4-6.6-1.8-10-.8-5.7-1.7-11.3-2.8-16.9-.2-1.1-.2-1.1-.4-2.4q-.9-4.9-1.9-9.8c-7.3-38.6-7.3-38.6-1.7-50.4 4.9-6.5 9.9-8 17.7-7.2" style="fill:#fa0102"/><path d="M83 90c9.9 3.4 14.3 14.3 18.6 23l3.6 7.8q1 2 2.1 4.1 2.4 5.2 4.8 10.3l6 12.4 1.2 2.6c5.1 10.7 10.3 21.3 15.5 31.9 6.4 13.1 12.8 26.1 19.1 39.1q.7 1.6 1.5 3.3 4.5 9.2 8.8 18.4.5 1.2 1.1 2.4 1.4 2.8 2.7 5.7v-2.2q.1-26.2.3-52.5.1-12.7.1-25.4.1-11 .1-22.1.1-5.9.1-11.7 0-5.6.1-11.1v-5.9c.1-10.1.8-19 7.3-27.1 3.4-3 6.5-3.5 11-3.4 4.6.9 8 4.1 11 7.4 2.9 5.4 3.4 10.7 3.4 16.7V161q.1 16.2 0 32.4 0 16.8.1 33.5v67.9c.1 22.5.1 22.5-7 31.3-5.9 4.5-11.2 4.7-18.5 3.9-3.3-1.5-3.3-1.5-6-4-.8-.7-.8-.7-1.6-1.5-5.7-5.7-8.8-12.7-12.1-19.9-1.7-3.4-3.4-6.8-5.1-10.1-4-8.1-8-16.3-12-24.4q-1-2.2-2.1-4.4-8.3-17.3-16.7-34.7-2.9-6.2-5.9-12.4l-3-6.2q-3.9-8.1-7.8-16.3-.8-1.7-1.7-3.4-1.5-3.2-3.1-6.5-.7-1.4-1.4-2.9l-1.2-2.6c-1.5-3.2-2.9-6.5-4.3-9.7v2.2l-.2 52.8q0 12.8-.1 25.6 0 11.1-.1 22.3v22.9q-.1 3 0 5.9C91.5 312.2 90 321 83 328c-4.5 2.7-8.9 2.6-14 2-5-2.6-7-6.9-9-12-2.9-9.2-2.3-19-2.3-28.6v-63.6q.1-15.4 0-30.9V132c0-26.3 0-26.3 7.3-35 5.7-5.7 9.8-8.1 18-7" style="fill:#fcfcfc"/><path d="M129.5 342.1c3.6 2.7 6.5 5.8 8.5 9.9 1.3 15.8 1.3 15.8-4 22-4 3.9-7.9 5.3-13.5 5.6-5.2-.3-9.4-1.4-13.5-4.6-5.5-7-5.6-13.4-5-22 1.7-5.3 4.6-7.8 9-11 5.2-2.6 13.1-1.6 18.5.1M197 342q1.3 4.3 2.5 8.7.4 1.2.7 2.5c1.2 4 2.1 7.6 1.8 11.8h2q.1-1.8.3-3.7c.7-6.5 1.9-15.5 6.7-20.3 3.1-.1 3.1-.1 6 0 2.2 4.9 4 9.8 5.7 14.9q.3 1.1.7 2.1l1.6 5c1.7-6 3.3-12.1 4.5-18.2.5-1.8.5-1.8 2.5-3.8 2.6.4 2.6.4 5 1 .2 5.4-.5 10.1-1.8 15.3-.3 1.1-.3 1.1-.6 2.3-3.7 15-3.7 15-6.6 19.4-2.4.4-2.4.4-5 0-3.7-3-4.1-6.8-5.1-11.3q-.4-2.2-.9-4.4-.3-1.1-.5-2.2c-.7-3.1-1.6-6.1-2.5-9.1l-.6 2.2-2.8 9.6q-.4 1.7-.9 3.4-.5 1.6-1 3.3c-.4 1.4-.4 1.4-.8 3-.9 2.5-.9 2.5-2.9 5.5-2.5.3-2.5.3-5 0-2.2-2.2-2.5-3.2-3.2-6.2l-.6-2.6q-.3-1.3-.6-2.7c-1.5-6.2-3.1-12.4-5.1-18.5-.6-2.4-.6-4.6-.5-7 2.7-1.3 4.2-.7 7 0" class="d"/><path d="M283.5 340.7c2.5.3 2.5.3 3.9 1.5q.7.9 1.3 1.9.7 1 1.5 2.1l1.8 2.8q1.3 1.9 2.6 3.9 3.7 5.5 7.4 11.1 0-.9.1-1.9.1-4.2.3-8.5 0-1.4.1-3 0-1.4.1-2.8 0-1.3.1-2.6c.3-2.2.3-2.2 2.3-4.2 4.6.6 4.6.6 6 2q.2 3.6.2 7.2v18.3q0 1.1.1 2.2c-.1 3.6-.2 5.2-2.3 8.3-2.3.6-2.3.6-5 0-4.9-4.5-8.4-10.4-11.9-15.9L287 355c-.3 7.6-.7 15.2-1 23l-5 1c-2.5-2.5-2.2-4-2.3-7.4v-9.2q.1-3.6 0-7.2v-6.8c.1-7.1.1-7.1 4.8-7.7" style="fill:#efefef"/><path d="M68.4 340.6c2.6.4 2.6.4 4.6 2.3l1.8 2.8q1 1.5 2.1 3 5.2 8.1 10.1 16.3 0-1 .1-2.1.2-4.7.3-9.3.1-1.7.2-3.3 0-1.6.1-3.2 0-1.4.1-2.9c.2-2.2.2-2.2 1.2-3.2 2.5-.1 2.5-.1 5 0 2 2 1.2 6 1.2 8.7v19.5q0 1.1.1 2.3c-.1 5.3-.1 5.3-2.3 7.5-3.6-.1-5.4-.4-8-3l-1.6-2.6q-.9-1.4-1.9-2.9-.9-1.4-1.8-2.9-1-1.5-1.9-3c-4.4-6.9-4.4-6.9-5.8-9.6q0 1-.1 2-.1 4.4-.3 8.9 0 1.5-.1 3.1 0 1.5-.1 3 0 1.4-.1 2.8C71 377 71 377 69 379c-3.5-.5-3.5-.5-5-2q-.2-3.7-.2-7.5v-18.9q0-1.1-.1-2.2c.1-7 .1-7 4.7-7.8" style="fill:#f7f7f7"/><path d="M370.9 340.7c3.1.3 3.1.3 4.6 1.4 3.3 4.1 4.9 9.4 6.9 14.2q1.3 3.1 2.6 6.1.8 1.9 1.6 3.9.7 1.7 1.5 3.5c.9 3.3.9 5-.1 8.2l-5 1q-1-1.9-2-3.9-.6-1-1.1-2.2c-.9-1.9-.9-1.9-.9-3.9-5.1-.1-10 0-15 1-2 2-2.6 3.5-3.3 6.2-.7 1.8-.7 1.8-2.7 2.7q-1 0-2 .1l-2-2c.3-4.9 1.6-9 3.4-13.5q.8-1.8 1.5-3.6c.4-.9.4-.9.8-1.9q1.1-2.8 2.3-5.6c4.6-11.3 4.6-11.3 8.9-11.7M257.3 340.7c3.7 1.3 3.7 1.3 5.2 3.4 1.4 3 2.6 6 3.7 9q.7 1.6 1.3 3.2l2.4 6q1.4 3.4 2.9 6.8c1.2 2.9 1.7 4.7 1.2 7.9l-2 2h-4c-2.3-3-3.1-5.3-4-9h-15c-1.3 3-2.6 5.9-4 9l-5-1c-1.5-4.7-.2-7.9 1.7-12.2q.4-1 .8-2.1.9-2.1 1.9-4.3 1.4-3.2 2.8-6.5.8-2.1 1.7-4.2.4-1 .9-2c1.9-4.5 2.5-5.6 7.5-6M322.4 340.8c2.6.2 2.6.2 4.6 2.2.4 3 .4 3 .6 6.6q.1 1.8.3 3.6c0 1.4 0 1.4.1 2.8q.6-.7 1.3-1.4 2.9-3.1 5.9-6.2c1-1 1-1 2-2.2l2-2q.9-1 1.9-1.9c1.9-1.3 1.9-1.3 4.6-1q1.2.3 2.3.7c.7 1.8.7 1.8 1 4-1.3 1.9-1.3 1.9-3.2 3.6q-1 .9-1.9 1.8C342 353 342 353 339 355c1.3 2.7 2.7 5.1 4.4 7.5l1.4 2 2.8 4 1.4 2c.6.8.6.8 1.2 1.7 1 2.3.6 3.5-.2 5.8l-5 1c-4.5-5.1-8.3-10.3-12-16-2.5 1.2-4 2-6 4-.5 2.7-.5 2.7-.6 5.6q-.1 1.5-.3 3.1 0 1.1-.1 2.3c-2.4.6-2.4.6-5 1-2.5-2.5-2.2-4.1-2.3-7.5q.1-1.2.1-2.3v-21.8c.1-6.3.1-6.3 3.6-6.6" class="g"/><path d="M144.9 340.8h7.6q2.1 0 4.1.1h4.2q5.1 0 10.2.1.6 2.5 1 5c-1 1-1 1-3.5 1.1h-3.1q-1.5-.1-3-.1H160v2.7q.1 5 .1 10 0 2.2.1 4.3v10c-.2 3-.2 3-2.2 5-2.6-.3-2.6-.3-5-1-1.4-2.9-1.1-5.3-1.1-8.5v-8.1q0-2.1.1-4.2V347h-10l-2-4c2-2 2-2 4.9-2.2" style="fill:#f4f4f4"/><path d="M123 347c3.5 1.7 4.8 2.7 7 6 .3 2.7.3 2.7.3 5.9q0 1.5.1 3.1c-.6 4.4-2.2 7-5.7 9.9-3.7 1.5-5.9 1.1-9.7.1-2.9-2.3-3.8-3.5-5-7-.4-4.9-.7-9.5 1.3-14.1 3.6-4.1 6.4-4.4 11.7-3.9" style="fill:#060606"/><path d="M178 341c2.4-.1 2.4-.1 5 0 2.5 2.5 2.2 3.8 2.3 7.2v8.9q-.1 3.5 0 7v6.6c-.1 3.6-.2 5.2-2.3 8.3-4.9-.9-4.9-.9-6-2q-.1-3.7-.1-7.5v-21.1c0-5.2 0-5.2 1.1-7.4" style="fill:#f1f1f1"/><path d="M325 100c7.5 6.4 8.3 16.2 10.2 25.4q.4 2.2.9 4.4c3.6 17.4 7 34.9 10.4 52.3q2.3 11.8 4.7 23.5.2 1.3.5 2.5 3.6 18.6 7.5 37.1.3 1.6.7 3.3l.6 2.8q.8 4.3 1.5 8.7l-3-1q-.3-1.6-.6-3.3-.3-2.2-.7-4.4l-.4-2.2c-.7-4.3-1.6-8.6-2.7-12.8-2.1-7.9-3.3-15.9-4.7-23.9-1.1-6.6-2.5-13.1-4.2-19.6-1.1-4.4-1.8-8.9-2.6-13.5-1.9-11.5-4.2-23-6.5-34.5q-1.1-5.4-2.1-10.7c-.4-1.8-1-3.6-1.5-5.4-1.2-4.5-1.8-9.1-2.3-13.7-.7-3.1-1.5-4.7-3.7-7l-2-1 1-3c-.4-2.1-.4-2.1-1-4" style="fill:#c90e0f"/><path d="M276 177h1c.3 7.1-.6 14-2 21l-1 1q-.3 2.2-.4 4.4c-.6 6.5-1.8 12.7-3.6 19-1.2 4.3-1.9 8.7-2.5 13.1-.5 2.5-.5 2.5-1.5 3.5q-.8 4.4-1.5 8.9-.4 2.4-.8 4.9-.2 1.1-.3 2.2c-.4 2-.4 2-1.4 5-3.9-1.8-3.9-1.8-5-4q-.1-3.1-.1-6.1.1-1.7.1-3.3V244h1c.7 3.6 1.3 7.3 2 11 3.8-11 5.5-22.6 7.4-34.1 1.6-8.9 3.3-17.8 5.1-26.6q1.2-5.5 2.3-11 .6-3.2 1.2-6.3" style="fill:#cb0e0f"/><path d="M224 93c4 1.8 7.1 4.1 9 8.1 2.6 7.2 4 14.6 5.3 22.1.2 1.6.2 1.6.5 3.2.9 5.6 1.4 10.9 1.2 16.6h-1c-2-7.2-2.9-14.4-3.8-21.8-.7-6-2.1-11.5-4.2-17.2q-.5-1.4-1-2.9c-1.4-3-1.4-3-4-5.1-4.7-.4-8-.5-12 2-1.5.7-1.5.7-3.1 1.4-3 1.6-3.8 2.5-4.9 5.6l-1-2c4-8.5 10.2-10.9 19-10" style="fill:#c41012"/><path d="M307 172h1c.1 5.1-.1 9.9-1 15l-1 1q-.3 2.5-.4 4.9c-1.2 14.7-1.2 14.7-3.6 17.1q-.7 3.6-1.3 7.2c-1.4 7.8-3.4 15.2-5.7 22.8-1.3-3.6-.7-6.3.1-10 .4-1.8.4-1.8.7-3.6q.5-1.9.9-3.8.6-3 1.3-6 .4-1.9.8-3.9c1.2-5.7 2.3-11.4 3.4-17.1q2.2-11.9 4.8-23.6" style="fill:#320000"/><path d="M266 222h1c-.2 11.7-3.1 22.7-6 34l-2-1c-.6-2.2-.6-2.2-1.1-5q-.3-1.5-.5-3.1l-.6-3.2-.6-3.2c-1.4-8.7-1.4-8.7-.2-12.5 2.3 6 3.5 11.6 4 18 1.2-3.9 2.1-7.4 2.4-11.4.5-4.6 1.8-8.4 3.6-12.6" style="fill:#390000"/><path d="M405 180h2c-.5 10.7-2.3 20.9-4.4 31.3q-.4 2.4-.9 4.8-.9 4.6-1.8 9.3-2 10.3-3.9 20.6h-1c-.1-7.4-.1-14.9 2-22l1-1q.3-2.5.5-5c.4-4.9.4-4.9 1.5-6q.3-2.5.6-5.1.1-1.3.2-2.7l.2-2.2h2l.2-2z" style="fill:#d90d0e"/><path d="M241 143c4.5 4.5 4.3 11.7 4.8 17.7 0 2.3 0 2.3 1.2 3.3q.4 2.6.7 5.3l.4 3.2.4 3.4q.4 3.4.8 6.7.2 1.5.3 3c.3 2.4.3 2.4 1.4 4.4q.3 2.2.5 4.4c.3 2.8.6 4.9 1.5 7.6q-.4 3-1 6h-1q-.3-2-.7-4-.2-1.3-.4-2.7l-1-6.2q-1.6-9-3.1-18.1l-1.6-9.8q-.4-2.4-.9-4.8-.6-3.4-1.1-6.9-.2-1-.4-2.1c-.6-3.5-.9-6.8-.8-10.4" style="fill:#3f0001"/><path d="M223 233h1q1.5 7.8 2.9 15.6.5 2.7 1 5.3c3.6 18.9 3.6 18.9 4.1 28.1h-2c-1.3-2.6-1.1-4.7-1.1-7.6q.1-1.5.1-3.1V269h-2q-.1-.9-.2-1.9-.1-1.2-.2-2.5-.2-1.2-.3-2.4c-.2-2.2-.2-2.2-1.3-4.2-.3-3.1-.5-6.2-.7-9.3-.1-2.7-.1-2.7-1.3-4.7q-.1-2.8-.1-5.6.1-1.5.1-3.1z" style="fill:#380101"/><path d="M204 105h1c0 .9 0 .9.1 1.9q.2 4.3.3 8.5l.2 3q0 1.5.1 2.9 0 1.3.1 2.7c0 2 0 2 1.2 3q.5 3.5.9 7.1c.7 6 1.6 11.9 2.7 17.8q.2 1.1.3 2.1c.5 3.3.5 3.3 2.1 6q.1 3 .1 6.1-.1 1.6-.1 3.3v2.6h-1q-1.4-7.7-2.9-15.4l-1-5.2c-6.5-34.6-6.5-34.6-4.1-46.4" style="fill:#cc1011"/><path d="M370 349h2q1.3 3.2 2.5 6.4.7 1.7 1.4 3.6c1.1 3 1.1 3 1.1 5h-11c.7-5.3 2.2-10 4-15" style="fill:#1c1c1c"/><path d="M256 349c2 1 2 1 2.8 2.9l.8 2.4q.3 1.1.7 2.3c.7 2.4 1.2 4.9 1.7 7.4h-11c3.1-10.7 3.1-10.7 5-15" style="fill:#191919"/><path d="M345 176c2 2 2 2 2 6h2l.2 1.8q.6 4.1 1.2 8.1l.4 2.8c.7 9.8.7 9.8 4.2 18.3q.2 2 .3 4 .1 1.2.1 2.5l.2 2.6q0 1.2.1 2.6.2 3.1.3 6.3h-1l-.6-3.2-2.2-11.8q-.5-2.6-1-5.1l-1.4-7.4c-.2-1.2-.2-1.2-.4-2.5q-1.8-9.1-3.9-18.2c-.5-2.8-.5-2.8-.5-6.8" style="fill:#3b0000"/><path d="M366 224h1q-.9 10.3-2.4 20.5-.2 1.3-.4 2.7l-.4 2.6q-.1 1.1-.3 2.3c-.5 1.9-.5 1.9-2.5 3.9l-2-7.6-.6-2.2c-1.1-4.2-1.6-7.9-1.4-12.2 2 2 2 2 2.5 5.6q.2 1.7.5 3.4l2 1q.1-1 .1-2.1c.5-6.4 1.6-11.9 3.9-17.9" style="fill:#2f0000"/><path d="M305 172h2c-1.9 16.5-4.9 32.9-9 49h-1c-.3-6.2-.3-11.1 2.3-16.8 1.2-3.8 1.3-7.8 1.5-11.8.2-2.4.2-2.4 1.2-3.4q.6-2.9 1-5.7c.6-3.8 1.2-7.6 2-11.3" style="fill:#cd0e0f"/><path d="M407 180h1q-.2 5-.4 9.9c-.1 1.5-.1 1.5-.2 2.9q0 1.3-.1 2.7c0 1.3 0 1.3-.1 2.6-.2 1.9-.2 1.9-1.2 2.9q-.3 2-.5 4c-.4 3.9-.4 3.9-1.5 5q-1 5.4-1.8 10.9c-.3 2.1-.8 4.1-1.2 6.1l-2 1c.6-7.6 1.9-14.9 3.4-22.3 1.8-8.6 3.4-17.1 4.6-25.7" style="fill:#420101"/><path d="M332 262c2 3.5 2.7 6.9 3.5 10.8l.4 2q.4 2.1.8 4.1.6 3.2 1.2 6.3c1.4 7.6 2.6 15.1 3.1 22.8l-2-1c-.6-2.8-1.1-5.6-1.6-8.4-.6-5.5-.6-5.5-2.4-10.6-.3-2.3-.5-4.7-.7-7-.1-2-.1-2-1.3-3q-.4-4-.6-8.1 0-1.1-.1-2.3-.2-2.8-.3-5.6" style="fill:#430101"/><path d="M385 111c1 3.1 1 4.2.5 7.4q-.2 1.3-.5 2.6c-.2 1.5-.2 1.5-.4 2.9q-.3 1.5-.5 3-.8 4.6-1.5 9.3-.6 3.1-1.1 6.3-1.2 7.8-2.5 15.5h-1c-.1-6.8 0-13.3 1-20l1-1 .4-4.8c.5-6.9 1.4-14.9 4.6-21.2" class="A"/><path d="M412 96h3c4.4 7.6 4.5 14.4 4.3 23.1q-.1 1.8-.1 3.7l-.2 9.2h-2q-.1 1.3-.1 2.6-.2 1.6-.3 3.3-.1 1.6-.2 3.3c-.4 2.8-.4 2.8-2.4 4.8q.5-3.9.9-7.8.2-1 .3-2.2c.7-5.6.7-5.6 1.3-8 2.1-8.6 2-20.3-2-28.3-1.3-2.1-1.3-2.1-2.5-3.7" style="fill:#490102"/><path d="M406 93c3.6 1.3 6.3 3 8.4 6.3q.3.8.6 1.7l-3-1v-2h-6v-2c-3.4-.3-6.6-.4-10 0-2.9 2.6-3.8 4.4-5 8h-2q-.2 1.1-.4 2.3c-.6 2.7-.6 2.7-2.6 5.7.3-6.6 2.8-11 7-16 4.1-3.7 7.7-3.8 13-3" style="fill:#be1214"/><path d="M287 260h2c-.6 7.9-1.9 15.6-3.4 23.4-.4 1.7-.4 1.7-.7 3.5l-.6 3.4-.6 3c-.7 2.5-1.5 4.5-2.7 6.7.4-7.5 1.3-14.8 2.5-22.2l.4-2.6c1-6.1 1-6.1 2.1-7.2q.3-2 .6-4.1.2-1.9.4-3.9" style="fill:#ce0e0f"/><path d="M317 186h1q1.3 6.7 2.6 13.5.5 2.2.9 4.5.7 3.3 1.3 6.6.2 1 .4 2.1c.6 3.4 1 6-.2 9.3-3.2-6.9-4.3-14.4-4-22h-2c-1-3.3-1-5.9-.6-9.3q.2-1.3.3-2.7.2-1 .3-2" class="E"/><path d="M287 270h1q-.2 4.5-.4 8.9l-.2 2.6q0 1.2-.1 2.5 0 1.1-.1 2.2c-.2 1.8-.2 1.8-1.2 2.8l-1.6 8.6-.4 2.4-1 6-2-2c.5-7.2 2.2-14.4 3.6-21.5q.3-1.8.7-3.6.8-4.5 1.7-8.9M279 151h2c-.6 8.8-2.3 17.4-4.1 26.1l-.8 4.4q-1.1 5.2-2.1 10.5h-1c-.2-6.8-.2-12.5 2-19 1.9-7.3 3.4-14.5 4-22" class="F"/><path d="M295 100c1 3 1 3 .3 4.8l-1.2 2c-2 3.7-2.7 7-3.1 11.2l-1 1c-.2 1.7-.2 1.7-.4 3.5-.5 4.7-2 9-3.6 13.5-.9-3-1-5.1-.4-8.2q.3-1.2.5-2.4.3-1.2.6-2.5t.5-2.6c1.7-7.3 3.6-14.1 7.8-20.3" style="fill:#c60f10"/><path d="M272 324v3c-5.7 5.2-8.7 6.3-16.2 6.3-4-.4-5.8-1.7-8.8-4.3 2.7-1.3 4.2-.7 7 0v2l4.8-.4q1.3-.2 2.6-.3c2.3-.3 4.4-.7 6.6-1.3v-3z" style="fill:#cc0f11"/><path d="m310 153 3 1c2.1 6 2.2 11.7 2 18h-1c-1.2-5.4-2.3-10.5-2-16h-2l-.2 2c-.4 4.7-.9 9.3-1.8 14h-1c-.3-7.1-.4-12.7 3-19" style="fill:#d60c0c"/><path d="M202 111h1q.8 5.6 1.6 11.3.2 1.5.4 3.2.2 1.5.4 3.1l.4 2.8c.2 2.5 0 4.3-.8 6.6-2.3-1.8-3-2.6-3.3-5.5v-6.3q.1-1.7.1-3.4c0-1.7 0-1.7.1-3.4q0-4.2.1-8.4" style="fill:#340101"/><path d="M413 148h1l-.4 9.8q0 1.3-.1 2.7 0 1.4-.1 2.7 0 1.3-.1 2.5c-.3 2.5-1.1 4.1-2.3 6.3l-2 7c-1.3-3.7-.7-6.5 0-10.3q.3-1.8.7-3.6.4-1.9.7-3.9.4-1.8.8-3.8z" style="fill:#400102"/><path d="M394 252h1q0 2.4.1 4.8v2.7c-.1 2.5-.1 2.5-1.1 5.5q-.2 2.8-.4 5.7c-.4 5.3-1.4 9.4-3.6 14.3-1.3-3.8-.7-6.8 0-10.7q.3-2 .7-4t.7-4.1q.4-2 .8-4.1.9-5 1.8-10.1" class="A"/><path d="M213 172h2l.2 2.4.2 3c.2 1.6.2 1.6.3 3.1 0 2.4 0 2.4 1.3 3.5 1.8 6.7 2.3 13.1 2 20h-1c-2.6-10.7-4.6-20.9-5-32" style="fill:#cc0f0e"/><path d="M405 180h2c-.4 11.6-2.7 22.7-5 34h-1v-12h2l.2-2z" style="fill:#ca0f12"/><path d="M415 102c2.8 2.6 3.2 4.8 3.4 8.4q0 2.6-.1 5.2v2.7c-.1 6.1-.7 11.8-2.3 17.7h-1q0-2.9-.1-5.9v-3.3c.1-2.8.1-2.8 1.1-4.8q.1-3.4.1-6.8v-3.6c-.1-3.3-.5-6.4-1.1-9.6" style="fill:#d00f12"/><path d="M223 94v1l-2.4.8c-2.8.9-5.6 1.9-8.3 3.1-1.2.4-1.2.4-2.3.9-2.4 1.4-3 2.7-4 5.2l-1-2c4.1-8.6 9.2-9.6 18-9" style="fill:#d80c0c"/><path d="M337 137c5.4 5.4 6.1 14.7 6.1 22.1q0 2.4-.1 4.9h-1q-1.3-5.9-2.5-11.8c-.4-1.7-.4-1.7-.7-3.4q-.4-1.6-.7-3.3-.3-1.4-.6-3c-.5-2.5-.5-2.5-.5-5.5" class="P"/><path d="M299 212c2.5 8.9-1.4 19.4-4 28-1.2-3.5-.8-6 0-9.6q.3-1.6.7-3.3.4-1.6.7-3.4.4-1.6.8-3.4.9-4.1 1.8-8.3" class="Q"/><path d="M269 201h3q-1.9 10.5-4 21h-1c-.3-7.2.5-13.9 2-21" style="fill:#2b0000"/><path d="M384 302c1.8 5.3.9 10-1.4 15q-2.2 4.1-4.6 8c-1.3-4-.4-6.1 1-10q.7-.9 1.5-1.9c2.4-3.3 2.8-7.1 3.5-11.1" style="fill:#ca0e0e"/><path d="M382 132h1q0 3.2.1 6.4v3.7c-.1 2.9-.1 2.9-1.1 3.9-.3 2.5-.4 5.1-.6 7.7-.4 2.3-.4 2.3-2.4 4.3-.2-6 .4-11.6 1.5-17.5q.2-1.2.4-2.5.6-3 1.1-6" style="fill:#cb0f0f"/><path d="M398 230h1l.2 6.6q0 1.9.1 3.8c-.3 3.9-1.3 6.2-3.3 9.6-1.3-4.3-.5-7.9.4-12.3q.3-1.1.5-2.2.5-2.8 1.1-5.5" style="fill:#410101"/><path d="M219 204c4.4 7.8 4.2 15.2 4 24h-1q-.8-4.6-1.5-9.2l-.4-2.6c-.7-4.1-1.3-8-1.1-12.2" style="fill:#d10e0f"/><path d="M310 156h2c.3 3.3.7 6.6 1 10h-3l-2 4c1-9.4 1-9.4 2-14" style="fill:#4c0000"/><path d="M87 344h1v22c-4-4-4-4-5-7l3 1c.3-5.3.7-10.6 1-16" style="fill:#151515"/><path d="M225 91c2.6 1.5 2.6 1.5 4 3l-1 2q-.8-.5-1.7-1c-2.5-1.1-4.1-1.2-6.8-1.2h-2.3c-2.2.2-4.1.6-6.2 1.2v-2c4.5-2.3 9-2.6 14-2" class="E"/><path d="M397 91h11v2l4 2c-3.2 0-6.1-.5-9.2-1q-1.6-.3-3.3-.6c-1.2-.2-1.2-.2-2.5-.4z" class="F"/><path d="M311.9 90.6q1.3 0 2.6-.1c2.5.5 2.5.5 6.5 4.5-5.3-.7-10.6-1.3-16-2 2.5-2.5 3.4-2.3 6.9-2.4" style="fill:#360000"/><path d="M236 303h1c1.3 5.9 2.6 11.9 4 18-4.9-4.9-5-7.8-5.1-14.4q.1-1.8.1-3.6" class="Q"/><path d="M399 94c9-.8 9-.8 13.1 2.4C414 99 414 99 415 101l-3-1v-2h-6v-2c-2.3-.3-4.6-.7-7-1z" style="fill:#d60d0f"/><path d="m241 321 1.6 2.2c2.6 3.1 5.3 5.3 8.4 7.8l2 2c-7.6-1.4-7.6-1.4-10.2-4.8-1.8-3.2-1.8-3.2-1.8-7.2" style="fill:#3e0101"/><path d="M412 96h3c4.6 9.2 4.6 9.2 4 15h-1l-.6-1.8c-1.4-4.6-3.1-8.9-5.4-13.2" style="fill:#380001"/><path d="M285 126h1c-1 10.6-1 10.6-2 15h-1c-.4-10.6-.4-10.6 2-15" class="P"/><path d="m252 209 1 3h2v16h-1q-.5-3.3-1-6.7-.3-1.8-.6-3.7c-.3-3-.5-5.7-.4-8.6" style="fill:#4c0203"/><path d="M268 331v2c-3.5 2.4-4.6 2.1-8.7 1.6-1.5-.1-1.5-.1-3-.3q-1.1-.2-2.3-.3v-1c1-.1 1-.1 2.1-.2l2.8-.2q1.3-.2 2.7-.3c2.4-.3 4-1.3 6.4-1.3" style="fill:#300000"/><path d="M269 201h3c-.7 3.6-1.3 7.3-2 11h-1z" style="fill:#430102"/><path d="m359 245 2 3 2 2c-.4 3.1-.4 3.1-1 6-2.4-2.4-2.3-3.3-2.6-6.6q-.1-1.2-.3-2.5 0-.9-.1-1.9" style="fill:#4a0000"/><path d="M240 316c3.7 3.1 4.6 5.2 5 10-3.4-2.2-3.8-3.3-5-7z" style="fill:#cc0d15"/><path d="m278 313 2 4c-.8 2.1-.8 2.1-2 4l-1 2h-2c1-3.3 2-6.6 3-10" style="fill:#360102"/><path d="M410 172h1c.2 5.5-.3 9.8-2 15h-1c-.2-5.5.3-9.8 2-15" style="fill:#150000"/></svg>