<svg version="1.2" xmlns="http://www.w3.org/2000/svg" viewBox="0 0 476 476" width="100" height="100"><style>.a{fill:#020101}.b{fill:#fa0102}.c{fill:#fcfcfc}.d{fill:#f2f2f2}.e{fill:#efefef}.f{fill:#f7f7f7}.g{fill:#f3f3f3}.h{fill:#f4f4f4}.i{fill:#060606}.j{fill:#f1f1f1}.k{fill:#c90e0f}.l{fill:#cb0e0f}.m{fill:#c41012}.n{fill:#320000}.o{fill:#390000}.p{fill:#d90d0e}.q{fill:#3f0001}.r{fill:#380101}.s{fill:#cc1011}.t{fill:#1c1c1c}.u{fill:#191919}.v{fill:#3b0000}.w{fill:#2f0000}.x{fill:#cd0e0f}.y{fill:#420101}.z{fill:#430101}.A{fill:#3f0000}.B{fill:#490102}.C{fill:#be1214}.D{fill:#ce0e0f}.E{fill:#380000}.F{fill:#300}.G{fill:#c60f10}.H{fill:#cc0f11}.I{fill:#d60c0c}.J{fill:#340101}.K{fill:#400102}.L{fill:#cc0f0e}.M{fill:#ca0f12}.N{fill:#d00f12}.O{fill:#d80c0c}.P{fill:#350000}.Q{fill:#470101}.R{fill:#2b0000}.S{fill:#ca0e0e}.T{fill:#cb0f0f}.U{fill:#410101}.V{fill:#d10e0f}.W{fill:#4c0000}.X{fill:#151515}.Y{fill:#360000}.Z{fill:#d60d0f}.a0{fill:#3e0101}.a1{fill:#380001}.a2{fill:#4c0203}.a3{fill:#300000}.a4{fill:#430102}.a5{fill:#4a0000}.a6{fill:#cc0d15}.a7{fill:#360102}.a8{fill:#150000}.a9{fill:#fff}.aa{opacity:.1;fill:#fff}</style><path class="a" d="m353 31q1.3 0.7 2.6 1.4c14.3 8.2 27 17.4 39.2 28.6q3.1 2.8 6.3 5.5c8.1 7.2 15.2 15 21.9 23.5q1.2 1.5 2.4 3c6.5 8.1 12 16.8 17.3 25.8q1.8 3.1 3.7 6.1c14.4 24.3 21.8 51.5 26.6 79.1q0.2 1.1 0.4 2.3c3.6 22 3 46.3-1 68.2q-0.6 3.7-1.1 7.5c-2.5 15.9-7.8 30.9-13.3 46q-0.4 1.2-0.9 2.5c-8.9 24.3-25.3 47.4-42.9 66.2-1.9 2-3.7 4.1-5.5 6.2-35.3 40.4-90.4 64.6-142.7 71.1q-1.8 0.3-3.7 0.5c-4.3 0.6-8.6 0.7-12.9 0.7q-1.2 0.1-2.4 0.1c-27.3 0.2-52.7-2.4-79-10.3q-1.2-0.4-2.5-0.7c-31.7-9.7-60.8-26.7-85.1-49.1q-2.4-2.2-4.8-4.3c-44.1-38.6-69.6-97.3-74.4-155-1.2-19-0.5-38.1 2.8-56.9q0.2-1.4 0.5-2.8c6.3-35.2 20.4-68.4 41.5-97.2q0.7-1 1.5-2c7.1-9.7 15.2-18.4 23.5-27q1.1-1.2 2.3-2.4c5.2-5.4 10.9-10 16.7-14.6q1.4-1.2 2.9-2.4c9.4-7.5 19.6-13.6 30.1-19.6q1-0.6 2-1.2c69.4-39.9 158.9-37.8 228 1.2z"/><path class="b" d="m224 93c4.1 1.9 7.2 4.2 9.1 8.3 2.9 8.8 4.4 17.6 5.8 26.7q0.4 2.5 0.7 4.9 0.6 3.8 1.2 7.6c1.2 7.6 2.5 15.3 3.8 22.9q2.7 15.8 5.2 31.7 0.2 1.4 0.4 2.9 0.5 2.8 0.9 5.7c2.7 17.2 5.6 34.3 8.9 51.3 3.8-10.9 5.5-22.4 7.4-33.8 1.3-7.9 2.9-15.9 4.5-23.8q1.7-8.2 3.2-16.4c0.3-1.3 0.3-1.3 0.6-2.8q0.6-2.8 1.1-5.7 0.9-4.5 1.8-8.9c2.4-12.3 2.4-12.3 4.7-24.7q0.6-3.1 1.2-6.2 0.7-3.6 1.4-7.2c2.3-12.1 5.5-24 15.8-31.4 5.9-1.9 11.7-1.9 17.5-0.1 11.1 8.1 13.4 18.6 16 31.4q0.4 2.2 0.9 4.4c3.6 17.4 7 34.9 10.4 52.3q2.3 11.8 4.7 23.5 0.2 1.3 0.5 2.5 4.5 23 9.3 45.9 0.5 0 1 0c4.1-24.3 8-48.7 11.8-73.1 1.7-10.3 3.3-20.6 5.2-31 0.9-5 1.7-10 2.4-15.1q0.6-3.4 1.1-6.9 0.4-2.4 0.7-4.7c3.1-20.9 3.1-20.9 10.5-28.3 4.3-2.5 7.5-2.8 12.3-1.9 4.4 1.3 7.3 3.8 9.9 7.5 7.5 15.9 0.1 38.6-3.2 54.8q-1.1 5.7-2.2 11.4-0.7 3.7-1.4 7.5c-1.8 8.8-3.3 17.7-4.7 26.6-1.3 7.7-2.7 15.5-4.2 23.2-3.4 17.4-6.5 34.9-9.4 52.4-1.5 8.7-3.1 17.4-5.3 26.1-0.5 2.4-0.7 4.6-0.8 7-0.6 7.5-5.3 15.9-11 20.8-4.8 3.1-9.1 3.2-14.7 2.7-6.7-1.8-9.6-5.3-13-11-4.5-8.8-6-18.6-7.9-28.2q-0.5-2.6-1-5.3-1.6-7.7-3.1-15.5-0.2-1-0.4-2.1-1.6-8.2-3.2-16.3c-2.2-11.5-4.4-22.9-6.7-34.4q-1-4.9-2-9.8-2.8-14-5.7-28.1-0.4-2.1-0.8-4.2-0.8-3.7-1.6-7.4-0.3-1.7-0.6-3.3-0.3-1.4-0.6-2.8c-0.4-2.9-0.5-5.7-0.4-8.6q-1 0-2 0-0.1 0.8-0.1 1.7c-0.7 7.8-2.2 15.3-3.8 22.9q-0.6 3.1-1.2 6.1-0.6 2.9-1.2 5.9-1.2 5.9-2.3 11.8c-1.1 6.2-2.4 12.4-3.7 18.5q-3.3 15.7-6.3 31.4-3.2 15.9-6.4 31.7-0.3 1.3-0.5 2.7-1.4 6.7-2.8 13.4-0.6 2.8-1.2 5.5c-2.2 10-6 18.4-14.5 24.4-3.9 2-8.7 1.4-13 1-3.4-1.7-3.4-1.7-6-4q-1.2-1.1-2.5-2.2c-2.8-3.2-4-6.1-5.1-10.1q-0.3-1.1-0.6-2.1c-2.2-7.5-3.6-15.1-5-22.7q-0.4-2.4-0.8-4.7-1-5.2-1.9-10.4-1.8-9.7-3.6-19.4c-7.6-40.7-7.6-40.7-10.1-55.8-0.7-4-1.4-7.9-2.5-11.9-0.8-3.3-1.4-6.6-1.8-10-0.8-5.7-1.7-11.3-2.8-16.9-0.2-1.1-0.2-1.1-0.4-2.4q-0.9-4.9-1.9-9.8c-7.3-38.6-7.3-38.6-1.7-50.4 4.9-6.5 9.9-8 17.7-7.2z"/><path class="c" d="m83 90c9.9 3.4 14.3 14.3 18.6 23q1.8 3.9 3.6 7.8 1 2 2.1 4.1 2.4 5.2 4.8 10.3 3 6.2 6 12.4 0.6 1.3 1.2 2.6c5.1 10.7 10.3 21.3 15.5 31.9 6.4 13.1 12.8 26.1 19.1 39.1q0.7 1.6 1.5 3.3 4.5 9.2 8.8 18.4 0.5 1.2 1.1 2.4 1.4 2.8 2.7 5.7 0-1.1 0-2.2 0.1-26.2 0.3-52.5 0.1-12.7 0.1-25.4 0.1-11 0.1-22.1 0.1-5.9 0.1-11.7 0-5.6 0.1-11.1 0-3 0-5.9c0.1-10.1 0.8-19 7.3-27.1 3.4-3 6.5-3.5 11-3.4 4.6 0.9 8 4.1 11 7.4 2.9 5.4 3.4 10.7 3.4 16.7 0 1.3 0 1.3 0 2.6q0 4.2 0 8.4 0 3.1 0 6.1 0 8.2 0 16.4 0 6.9 0 13.8 0.1 16.2 0 32.4 0 16.8 0.1 33.5 0 14.3 0 28.7 0 8.6 0 17.1 0 8.1 0 16.2 0 2.9 0 5.9c0.1 22.5 0.1 22.5-7 31.3-5.9 4.5-11.2 4.7-18.5 3.9-3.3-1.5-3.3-1.5-6-4-0.8-0.7-0.8-0.7-1.6-1.5-5.7-5.7-8.8-12.7-12.1-19.9-1.7-3.4-3.4-6.8-5.1-10.1-4-8.1-8-16.3-12-24.4q-1-2.2-2.1-4.4-8.3-17.3-16.7-34.7-2.9-6.2-5.9-12.4-1.5-3.1-3-6.2-3.9-8.1-7.8-16.3-0.8-1.7-1.7-3.4-1.5-3.2-3.1-6.5-0.7-1.4-1.4-2.9-0.6-1.3-1.2-2.6c-1.5-3.2-2.9-6.5-4.3-9.7q0 1.1 0 2.2-0.1 26.4-0.2 52.8 0 12.8-0.1 25.6 0 11.1-0.1 22.3 0 5.9 0 11.7 0 5.6 0 11.2-0.1 3 0 5.9c-0.1 9.5-1.6 18.3-8.6 25.3-4.5 2.7-8.9 2.6-14 2-5-2.6-7-6.9-9-12-2.9-9.2-2.3-19-2.3-28.6q0-2.8 0-5.6 0-7.6 0-15.2 0-8 0-16 0-13.4 0-26.8 0.1-15.4 0-30.9 0-13.3 0-26.6 0-8 0-15.9 0-7.4 0-14.9 0-2.7 0-5.5c0-26.3 0-26.3 7.3-35 5.7-5.7 9.8-8.1 18-7z"/><path class="d" d="m129.5 342.1c3.6 2.7 6.5 5.8 8.5 9.9 1.3 15.8 1.3 15.8-4 22-4 3.9-7.9 5.3-13.5 5.6-5.2-0.3-9.4-1.4-13.5-4.6-5.5-7-5.6-13.4-5-22 1.7-5.3 4.6-7.8 9-11 5.2-2.6 13.1-1.6 18.5 0.1z"/><path class="d" d="m197 342q1.3 4.3 2.5 8.7 0.4 1.2 0.7 2.5c1.2 4 2.1 7.6 1.8 11.8q1 0 2 0 0.1-1.8 0.3-3.7c0.7-6.5 1.9-15.5 6.7-20.3 3.1-0.1 3.1-0.1 6 0 2.2 4.9 4 9.8 5.7 14.9q0.3 1.1 0.7 2.1 0.8 2.5 1.6 5c1.7-6 3.3-12.1 4.5-18.2 0.5-1.8 0.5-1.8 2.5-3.8 2.6 0.4 2.6 0.4 5 1 0.2 5.4-0.5 10.1-1.8 15.3-0.3 1.1-0.3 1.1-0.6 2.3-3.7 15-3.7 15-6.6 19.4-2.4 0.4-2.4 0.4-5 0-3.7-3-4.1-6.8-5.1-11.3q-0.4-2.2-0.9-4.4-0.3-1.1-0.5-2.2c-0.7-3.1-1.6-6.1-2.5-9.1-0.3 1.1-0.3 1.1-0.6 2.2q-1.4 4.8-2.8 9.6-0.4 1.7-0.9 3.4-0.5 1.6-1 3.3c-0.4 1.4-0.4 1.4-0.8 3-0.9 2.5-0.9 2.5-2.9 5.5-2.5 0.3-2.5 0.3-5 0-2.2-2.2-2.5-3.2-3.2-6.2q-0.3-1.3-0.6-2.6-0.3-1.3-0.6-2.7c-1.5-6.2-3.1-12.4-5.1-18.5-0.6-2.4-0.6-4.6-0.5-7 2.7-1.3 4.2-0.7 7 0z"/><path class="e" d="m283.5 340.7c2.5 0.3 2.5 0.3 3.9 1.5q0.7 0.9 1.3 1.9 0.7 1 1.5 2.1c0.9 1.4 0.9 1.4 1.8 2.8q1.3 1.9 2.6 3.9 3.7 5.5 7.4 11.1 0-0.9 0.1-1.9 0.1-4.2 0.3-8.5 0-1.4 0.1-3 0-1.4 0.1-2.8 0-1.3 0.1-2.6c0.3-2.2 0.3-2.2 2.3-4.2 4.6 0.6 4.6 0.6 6 2q0.2 3.6 0.2 7.2c0 1.1 0 1.1 0 2.2q0 2.3 0 4.6 0 3.5 0 7.1 0 2.2 0 4.4 0 1.1 0.1 2.2c-0.1 3.6-0.2 5.2-2.3 8.3-2.3 0.6-2.3 0.6-5 0-4.9-4.5-8.4-10.4-11.9-15.9-1.7-2.7-3.4-5.4-5.1-8.1-0.3 7.6-0.7 15.2-1 23-2.5 0.5-2.5 0.5-5 1-2.5-2.5-2.2-4-2.3-7.4q0-1 0-2.2 0-1.1 0-2.2 0-2.4 0-4.8 0.1-3.6 0-7.2 0-2.3 0-4.6 0-1.1 0-2.2c0.1-7.1 0.1-7.1 4.8-7.7z"/><path class="f" d="m68.4 340.6c2.6 0.4 2.6 0.4 4.6 2.3 0.9 1.4 0.9 1.4 1.8 2.8q1 1.5 2.1 3 5.2 8.1 10.1 16.3 0-1 0.1-2.1 0.2-4.7 0.3-9.3 0.1-1.7 0.2-3.3 0-1.6 0.1-3.2 0-1.4 0.1-2.9c0.2-2.2 0.2-2.2 1.2-3.2 2.5-0.1 2.5-0.1 5 0 2 2 1.2 6 1.2 8.7q0 1.1 0 2.3 0 2.5 0 4.9 0 3.8 0 7.5 0 2.4 0 4.8 0 1.1 0.1 2.3c-0.1 5.3-0.1 5.3-2.3 7.5-3.6-0.1-5.4-0.4-8-3-0.8-1.3-0.8-1.3-1.6-2.6q-0.9-1.4-1.9-2.9-0.9-1.4-1.8-2.9-1-1.5-1.9-3c-4.4-6.9-4.4-6.9-5.8-9.6q0 1-0.1 2-0.1 4.4-0.3 8.9 0 1.5-0.1 3.1 0 1.5-0.1 3 0 1.4-0.1 2.8c-0.3 2.2-0.3 2.2-2.3 4.2-3.5-0.5-3.5-0.5-5-2q-0.2-3.7-0.2-7.5 0-1.1 0-2.2 0-2.4 0-4.8 0-3.6 0-7.3 0-2.3 0-4.6 0-1.1-0.1-2.2c0.1-7 0.1-7 4.7-7.8z"/><path class="g" d="m370.9 340.7c3.1 0.3 3.1 0.3 4.6 1.4 3.3 4.1 4.9 9.4 6.9 14.2q1.3 3.1 2.6 6.1 0.8 1.9 1.6 3.9 0.7 1.7 1.5 3.5c0.9 3.3 0.9 5-0.1 8.2-2.5 0.5-2.5 0.5-5 1q-1-1.9-2-3.9-0.6-1-1.1-2.2c-0.9-1.9-0.9-1.9-0.9-3.9-5.1-0.1-10 0-15 1-2 2-2.6 3.5-3.3 6.2-0.7 1.8-0.7 1.8-2.7 2.7q-1 0-2 0.1-1-1-2-2c0.3-4.9 1.6-9 3.4-13.5q0.8-1.8 1.5-3.6c0.4-0.9 0.4-0.9 0.8-1.9q1.1-2.8 2.3-5.6c4.6-11.3 4.6-11.3 8.9-11.7z"/><path class="g" d="m257.3 340.7c3.7 1.3 3.7 1.3 5.2 3.4 1.4 3 2.6 6 3.7 9q0.7 1.6 1.3 3.2 1.2 3 2.4 6 1.4 3.4 2.9 6.8c1.2 2.9 1.7 4.7 1.2 7.9q-1 1-2 2-2 0-4 0c-2.3-3-3.1-5.3-4-9-5 0-9.9 0-15 0-1.3 3-2.6 5.9-4 9q-2.5-0.5-5-1c-1.5-4.7-0.2-7.9 1.7-12.2q0.4-1 0.8-2.1 0.9-2.1 1.9-4.3 1.4-3.2 2.8-6.5 0.8-2.1 1.7-4.2 0.4-1 0.9-2c1.9-4.5 2.5-5.6 7.5-6z"/><path class="g" d="m322.4 340.8c2.6 0.2 2.6 0.2 4.6 2.2 0.4 3 0.4 3 0.6 6.6q0.1 1.8 0.3 3.6c0 1.4 0 1.4 0.1 2.8q0.6-0.7 1.3-1.4 2.9-3.1 5.9-6.2c1-1 1-1 2-2.2q1-1 2-2 0.9-1 1.9-1.9c1.9-1.3 1.9-1.3 4.6-1q1.2 0.3 2.3 0.7c0.7 1.8 0.7 1.8 1 4-1.3 1.9-1.3 1.9-3.2 3.6q-1 0.9-1.9 1.8c-1.9 1.6-1.9 1.6-4.9 3.6 1.3 2.7 2.7 5.1 4.4 7.5q0.7 1 1.4 2 1.4 2 2.8 4 0.7 1 1.4 2c0.6 0.8 0.6 0.8 1.2 1.7 1 2.3 0.6 3.5-0.2 5.8-2.5 0.5-2.5 0.5-5 1-4.5-5.1-8.3-10.3-12-16-2.5 1.2-4 2-6 4-0.5 2.7-0.5 2.7-0.6 5.6q-0.1 1.5-0.3 3.1 0 1.1-0.1 2.3c-2.4 0.6-2.4 0.6-5 1-2.5-2.5-2.2-4.1-2.3-7.5q0.1-1.2 0.1-2.3 0-1.2 0-2.4 0-2.4 0-4.8 0-3.8 0-7.6 0-2.3 0-4.7 0-1.1 0-2.3c0.1-6.3 0.1-6.3 3.6-6.6z"/><path class="h" d="m144.9 340.8q1.8 0 3.6 0c2 0 2 0 4 0q2.1 0 4.1 0.1 2.1 0 4.2 0 5.1 0 10.2 0.1 0.6 2.5 1 5c-1 1-1 1-3.5 1.1-1.5 0-1.5 0-3.1 0q-1.5-0.1-3-0.1c-1.2 0-1.2 0-2.4 0q0 1.3 0 2.7 0.1 5 0.1 10 0 2.2 0.1 4.3 0 3.1 0 6.2 0 1.9 0 3.8c-0.2 3-0.2 3-2.2 5-2.6-0.3-2.6-0.3-5-1-1.4-2.9-1.1-5.3-1.1-8.5q0-2 0-4 0-2.1 0-4.1 0-2.1 0.1-4.2 0-5.1 0-10.2c-3.3 0-6.6 0-10 0q-1-2-2-4c2-2 2-2 4.9-2.2z"/><path class="i" d="m123 347c3.5 1.7 4.8 2.7 7 6 0.3 2.7 0.3 2.7 0.3 5.9q0 1.5 0.1 3.1c-0.6 4.4-2.2 7-5.7 9.9-3.7 1.5-5.9 1.1-9.7 0.1-2.9-2.3-3.8-3.5-5-7-0.4-4.9-0.7-9.5 1.3-14.1 3.6-4.1 6.4-4.4 11.7-3.9z"/><path class="j" d="m178 341c2.4-0.1 2.4-0.1 5 0 2.5 2.5 2.2 3.8 2.3 7.2q0 1 0 2.1 0 1.1 0 2.2 0 2.3 0 4.6-0.1 3.5 0 7 0 2.2 0 4.5 0 1 0 2.1c-0.1 3.6-0.2 5.2-2.3 8.3-4.9-0.9-4.9-0.9-6-2q-0.1-3.7-0.1-7.5 0-1.1 0-2.2 0-2.4 0-4.8 0-3.6 0-7.3 0-2.3 0-4.6 0-1.1 0-2.2c0-5.2 0-5.2 1.1-7.4z"/><path class="k" d="m325 100c7.5 6.4 8.3 16.2 10.2 25.4q0.4 2.2 0.9 4.4c3.6 17.4 7 34.9 10.4 52.3q2.3 11.8 4.7 23.5 0.2 1.3 0.5 2.5 3.6 18.6 7.5 37.1 0.3 1.6 0.7 3.3 0.3 1.4 0.6 2.8 0.8 4.3 1.5 8.7-1.5-0.5-3-1-0.3-1.6-0.6-3.3-0.3-2.2-0.7-4.4c-0.2-1.1-0.2-1.1-0.4-2.2-0.7-4.3-1.6-8.6-2.7-12.8-2.1-7.9-3.3-15.9-4.7-23.9-1.1-6.6-2.5-13.1-4.2-19.6-1.1-4.4-1.8-8.9-2.6-13.5-1.9-11.5-4.2-23-6.5-34.5q-1.1-5.4-2.1-10.7c-0.4-1.8-1-3.6-1.5-5.4-1.2-4.5-1.8-9.1-2.3-13.7-0.7-3.1-1.5-4.7-3.7-7q-1-0.5-2-1 0.5-1.5 1-3c-0.4-2.1-0.4-2.1-1-4z"/><path class="l" d="m276 177q0.5 0 1 0c0.3 7.1-0.6 14-2 21q-0.5 0.5-1 1-0.3 2.2-0.4 4.4c-0.6 6.5-1.8 12.7-3.6 19-1.2 4.3-1.9 8.7-2.5 13.1-0.5 2.5-0.5 2.5-1.5 3.5q-0.8 4.4-1.5 8.9-0.4 2.4-0.8 4.9-0.2 1.1-0.3 2.2c-0.4 2-0.4 2-1.4 5-3.9-1.8-3.9-1.8-5-4q-0.1-3.1-0.1-6.1 0.1-1.7 0.1-3.3 0-1.3 0-2.6 0.5 0 1 0c0.7 3.6 1.3 7.3 2 11 3.8-11 5.5-22.6 7.4-34.1 1.6-8.9 3.3-17.8 5.1-26.6q1.2-5.5 2.3-11 0.6-3.2 1.2-6.3z"/><path class="m" d="m224 93c4 1.8 7.1 4.1 9 8.1 2.6 7.2 4 14.6 5.3 22.1 0.2 1.6 0.2 1.6 0.5 3.2 0.9 5.6 1.4 10.9 1.2 16.6q-0.5 0-1 0c-2-7.2-2.9-14.4-3.8-21.8-0.7-6-2.1-11.5-4.2-17.2q-0.5-1.4-1-2.9c-1.4-3-1.4-3-4-5.1-4.7-0.4-8-0.5-12 2-1.5 0.7-1.5 0.7-3.1 1.4-3 1.6-3.8 2.5-4.9 5.6q-0.5-1-1-2c4-8.5 10.2-10.9 19-10z"/><path class="n" d="m307 172q0.5 0 1 0c0.1 5.1-0.1 9.9-1 15q-0.5 0.5-1 1-0.3 2.5-0.4 4.9c-1.2 14.7-1.2 14.7-3.6 17.1q-0.7 3.6-1.3 7.2c-1.4 7.8-3.4 15.2-5.7 22.8-1.3-3.6-0.7-6.3 0.1-10 0.4-1.8 0.4-1.8 0.7-3.6q0.5-1.9 0.9-3.8 0.6-3 1.3-6 0.4-1.9 0.8-3.9c1.2-5.7 2.3-11.4 3.4-17.1q2.2-11.9 4.8-23.6z"/><path class="o" d="m266 222q0.5 0 1 0c-0.2 11.7-3.1 22.7-6 34q-1-0.5-2-1c-0.6-2.2-0.6-2.2-1.1-5q-0.3-1.5-0.5-3.1-0.3-1.6-0.6-3.2c-0.3-1.6-0.3-1.6-0.6-3.2-1.4-8.7-1.4-8.7-0.2-12.5 2.3 6 3.5 11.6 4 18 1.2-3.9 2.1-7.4 2.4-11.4 0.5-4.6 1.8-8.4 3.6-12.6z"/><path class="p" d="m405 180q1 0 2 0c-0.5 10.7-2.3 20.9-4.4 31.3q-0.4 2.4-0.9 4.8-0.9 4.6-1.8 9.3-2 10.3-3.9 20.6-0.5 0-1 0c-0.1-7.4-0.1-14.9 2-22 0.5-0.5 0.5-0.5 1-1q0.3-2.5 0.5-5c0.4-4.9 0.4-4.9 1.5-6q0.3-2.5 0.6-5.1 0.1-1.3 0.2-2.7 0.1-1.1 0.2-2.2 1 0 2 0 0.1-1 0.2-2 0.9-10 1.8-20z"/><path class="q" d="m241 143c4.5 4.5 4.3 11.7 4.8 17.7 0 2.3 0 2.3 1.2 3.3q0.4 2.6 0.7 5.3 0.2 1.6 0.4 3.2c0.2 1.7 0.2 1.7 0.4 3.4q0.4 3.4 0.8 6.7 0.2 1.5 0.3 3c0.3 2.4 0.3 2.4 1.4 4.4q0.3 2.2 0.5 4.4c0.3 2.8 0.6 4.9 1.5 7.6q-0.4 3-1 6-0.5 0-1 0-0.3-2-0.7-4-0.2-1.3-0.4-2.7-0.5-3.1-1-6.2-1.6-9-3.1-18.1-0.8-4.9-1.6-9.8-0.4-2.4-0.9-4.8-0.6-3.4-1.1-6.9-0.2-1-0.4-2.1c-0.6-3.5-0.9-6.8-0.8-10.4z"/><path class="r" d="m223 233q0.5 0 1 0 1.5 7.8 2.9 15.6 0.5 2.7 1 5.3c3.6 18.9 3.6 18.9 4.1 28.1q-1 0-2 0c-1.3-2.6-1.1-4.7-1.1-7.6q0.1-1.5 0.1-3.1c0-1.1 0-1.1 0-2.3q-1 0-2 0-0.1-0.9-0.2-1.9-0.1-1.2-0.2-2.5-0.2-1.2-0.3-2.4c-0.2-2.2-0.2-2.2-1.3-4.2-0.3-3.1-0.5-6.2-0.7-9.3-0.1-2.7-0.1-2.7-1.3-4.7q-0.1-2.8-0.1-5.6 0.1-1.5 0.1-3.1 0-1.1 0-2.3z"/><path class="s" d="m204 105q0.5 0 1 0c0 0.9 0 0.9 0.1 1.9q0.2 4.3 0.3 8.5 0.1 1.5 0.2 3 0 1.5 0.1 2.9 0 1.3 0.1 2.7c0 2 0 2 1.2 3q0.5 3.5 0.9 7.1c0.7 6 1.6 11.9 2.7 17.8q0.2 1.1 0.3 2.1c0.5 3.3 0.5 3.3 2.1 6q0.1 3 0.1 6.1-0.1 1.6-0.1 3.3 0 1.3 0 2.6-0.5 0-1 0-1.4-7.7-2.9-15.4-0.5-2.6-1-5.2c-6.5-34.6-6.5-34.6-4.1-46.4z"/><path class="t" d="m370 349q1 0 2 0 1.3 3.2 2.5 6.4 0.7 1.7 1.4 3.6c1.1 3 1.1 3 1.1 5-3.6 0-7.3 0-11 0 0.7-5.3 2.2-10 4-15z"/><path class="u" d="m256 349c2 1 2 1 2.8 2.9q0.4 1.2 0.8 2.4 0.3 1.1 0.7 2.3c0.7 2.4 1.2 4.9 1.7 7.4-3.6 0-7.3 0-11 0 3.1-10.7 3.1-10.7 5-15z"/><path class="v" d="m345 176c2 2 2 2 2 6q1 0 2 0 0.1 0.9 0.2 1.8 0.6 4.1 1.2 8.1 0.2 1.4 0.4 2.8c0.7 9.8 0.7 9.8 4.2 18.3q0.2 2 0.3 4 0.1 1.2 0.1 2.5 0.1 1.3 0.2 2.6 0 1.2 0.1 2.6 0.2 3.1 0.3 6.3-0.5 0-1 0-0.3-1.6-0.6-3.2-1.1-5.9-2.2-11.8-0.5-2.6-1-5.1-0.7-3.7-1.4-7.4c-0.2-1.2-0.2-1.2-0.4-2.5q-1.8-9.1-3.9-18.2c-0.5-2.8-0.5-2.8-0.5-6.8z"/><path class="w" d="m366 224q0.5 0 1 0-0.9 10.3-2.4 20.5-0.2 1.3-0.4 2.7-0.2 1.3-0.4 2.6-0.1 1.1-0.3 2.3c-0.5 1.9-0.5 1.9-2.5 3.9q-1-3.8-2-7.6-0.3-1.1-0.6-2.2c-1.1-4.2-1.6-7.9-1.4-12.2 2 2 2 2 2.5 5.6q0.2 1.7 0.5 3.4 1 0.5 2 1 0.1-1 0.1-2.1c0.5-6.4 1.6-11.9 3.9-17.9z"/><path class="x" d="m305 172q1 0 2 0c-1.9 16.5-4.9 32.9-9 49q-0.5 0-1 0c-0.3-6.2-0.3-11.1 2.3-16.8 1.2-3.8 1.3-7.8 1.5-11.8 0.2-2.4 0.2-2.4 1.2-3.4q0.6-2.9 1-5.7c0.6-3.8 1.2-7.6 2-11.3z"/><path class="y" d="m407 180q0.5 0 1 0-0.2 5-0.4 9.9c-0.1 1.5-0.1 1.5-0.2 2.9q0 1.3-0.1 2.7c0 1.3 0 1.3-0.1 2.6-0.2 1.9-0.2 1.9-1.2 2.9q-0.3 2-0.5 4c-0.4 3.9-0.4 3.9-1.5 5q-1 5.4-1.8 10.9c-0.3 2.1-0.8 4.1-1.2 6.1-1 0.5-1 0.5-2 1 0.6-7.6 1.9-14.9 3.4-22.3 1.8-8.6 3.4-17.1 4.6-25.7z"/><path class="z" d="m332 262c2 3.5 2.7 6.9 3.5 10.8q0.2 1 0.4 2 0.4 2.1 0.8 4.1 0.6 3.2 1.2 6.3c1.4 7.6 2.6 15.1 3.1 22.8q-1-0.5-2-1c-0.6-2.8-1.1-5.6-1.6-8.4-0.6-5.5-0.6-5.5-2.4-10.6-0.3-2.3-0.5-4.7-0.7-7-0.1-2-0.1-2-1.3-3q-0.4-4-0.6-8.1 0-1.1-0.1-2.3-0.2-2.8-0.3-5.6z"/><path class="A" d="m385 111c1 3.1 1 4.2 0.5 7.4q-0.2 1.3-0.5 2.6c-0.2 1.5-0.2 1.5-0.4 2.9q-0.3 1.5-0.5 3-0.8 4.6-1.5 9.3-0.6 3.1-1.1 6.3-1.2 7.8-2.5 15.5-0.5 0-1 0c-0.1-6.8 0-13.3 1-20q0.5-0.5 1-1 0.2-2.4 0.4-4.8c0.5-6.9 1.4-14.9 4.6-21.2z"/><path class="B" d="m412 96q1.5 0 3 0c4.4 7.6 4.5 14.4 4.3 23.1q-0.1 1.8-0.1 3.7-0.1 4.6-0.2 9.2-1 0-2 0-0.1 1.3-0.1 2.6-0.2 1.6-0.3 3.3-0.1 1.6-0.2 3.3c-0.4 2.8-0.4 2.8-2.4 4.8q0.5-3.9 0.9-7.8 0.2-1 0.3-2.2c0.7-5.6 0.7-5.6 1.3-8 2.1-8.6 2-20.3-2-28.3-1.3-2.1-1.3-2.1-2.5-3.7z"/><path class="C" d="m406 93c3.6 1.3 6.3 3 8.4 6.3q0.3 0.8 0.6 1.7-1.5-0.5-3-1 0-1 0-2-3 0-6 0 0-1 0-2c-3.4-0.3-6.6-0.4-10 0-2.9 2.6-3.8 4.4-5 8q-1 0-2 0-0.2 1.1-0.4 2.3c-0.6 2.7-0.6 2.7-2.6 5.7 0.3-6.6 2.8-11 7-16 4.1-3.7 7.7-3.8 13-3z"/><path class="D" d="m287 260q1 0 2 0c-0.6 7.9-1.9 15.6-3.4 23.4-0.4 1.7-0.4 1.7-0.7 3.5q-0.3 1.7-0.6 3.4-0.3 1.5-0.6 3c-0.7 2.5-1.5 4.5-2.7 6.7 0.4-7.5 1.3-14.8 2.5-22.2q0.2-1.3 0.4-2.6c1-6.1 1-6.1 2.1-7.2q0.3-2 0.6-4.1 0.2-1.9 0.4-3.9z"/><path class="E" d="m317 186q0.5 0 1 0 1.3 6.7 2.6 13.5 0.5 2.2 0.9 4.5 0.7 3.3 1.3 6.6 0.2 1 0.4 2.1c0.6 3.4 1 6-0.2 9.3-3.2-6.9-4.3-14.4-4-22q-1 0-2 0c-1-3.3-1-5.9-0.6-9.3q0.2-1.3 0.3-2.7 0.2-1 0.3-2z"/><path class="F" d="m287 270q0.5 0 1 0-0.2 4.5-0.4 8.9-0.1 1.3-0.2 2.6 0 1.2-0.1 2.5 0 1.1-0.1 2.2c-0.2 1.8-0.2 1.8-1.2 2.8q-0.8 4.3-1.6 8.6-0.2 1.2-0.4 2.4-0.5 3-1 6-1-1-2-2c0.5-7.2 2.2-14.4 3.6-21.5q0.3-1.8 0.7-3.6 0.8-4.5 1.7-8.9z"/><path class="F" d="m279 151q1 0 2 0c-0.6 8.8-2.3 17.4-4.1 26.1q-0.4 2.2-0.8 4.4-1.1 5.2-2.1 10.5-0.5 0-1 0c-0.2-6.8-0.2-12.5 2-19 1.9-7.3 3.4-14.5 4-22z"/><path class="G" d="m295 100c1 3 1 3 0.3 4.8q-0.6 1-1.2 2c-2 3.7-2.7 7-3.1 11.2q-0.5 0.5-1 1c-0.2 1.7-0.2 1.7-0.4 3.5-0.5 4.7-2 9-3.6 13.5-0.9-3-1-5.1-0.4-8.2q0.3-1.2 0.5-2.4 0.3-1.2 0.6-2.5 0.3-1.3 0.5-2.6c1.7-7.3 3.6-14.1 7.8-20.3z"/><path class="H" d="m272 324q0 1.5 0 3c-5.7 5.2-8.7 6.3-16.2 6.3-4-0.4-5.8-1.7-8.8-4.3 2.7-1.3 4.2-0.7 7 0q0 1 0 2 2.4-0.2 4.8-0.4 1.3-0.2 2.6-0.3c2.3-0.3 4.4-0.7 6.6-1.3q0-1.5 0-3 2-1 4-2z"/><path class="I" d="m310 153q1.5 0.5 3 1c2.1 6 2.2 11.7 2 18q-0.5 0-1 0c-1.2-5.4-2.3-10.5-2-16q-1 0-2 0-0.1 1-0.2 2c-0.4 4.7-0.9 9.3-1.8 14q-0.5 0-1 0c-0.3-7.1-0.4-12.7 3-19z"/><path class="J" d="m202 111q0.5 0 1 0 0.8 5.6 1.6 11.3 0.2 1.5 0.4 3.2 0.2 1.5 0.4 3.1 0.2 1.4 0.4 2.8c0.2 2.5 0 4.3-0.8 6.6-2.3-1.8-3-2.6-3.3-5.5q0-1.5 0-3 0-1.6 0-3.3 0.1-1.7 0.1-3.4c0-1.7 0-1.7 0.1-3.4q0-4.2 0.1-8.4z"/><path class="K" d="m413 148q0.5 0 1 0-0.2 4.9-0.4 9.8 0 1.3-0.1 2.7 0 1.4-0.1 2.7 0 1.3-0.1 2.5c-0.3 2.5-1.1 4.1-2.3 6.3q-1 3.5-2 7c-1.3-3.7-0.7-6.5 0-10.3q0.3-1.8 0.7-3.6 0.4-1.9 0.7-3.9 0.4-1.8 0.8-3.8 0.9-4.7 1.8-9.4z"/><path class="A" d="m394 252q0.5 0 1 0 0 2.4 0.1 4.8 0 1.3 0 2.7c-0.1 2.5-0.1 2.5-1.1 5.5q-0.2 2.8-0.4 5.7c-0.4 5.3-1.4 9.4-3.6 14.3-1.3-3.8-0.7-6.8 0-10.7q0.3-2 0.7-4 0.4-2 0.7-4.1 0.4-2 0.8-4.1 0.9-5 1.8-10.1z"/><path class="L" d="m213 172q1 0 2 0 0.1 1.2 0.2 2.4 0.1 1.5 0.2 3c0.2 1.6 0.2 1.6 0.3 3.1 0 2.4 0 2.4 1.3 3.5 1.8 6.7 2.3 13.1 2 20q-0.5 0-1 0c-2.6-10.7-4.6-20.9-5-32z"/><path class="M" d="m405 180q1 0 2 0c-0.4 11.6-2.7 22.7-5 34q-0.5 0-1 0c0-4 0-7.9 0-12q1 0 2 0c0.1-1 0.1-1 0.2-2q0.9-10 1.8-20z"/><path class="N" d="m415 102c2.8 2.6 3.2 4.8 3.4 8.4q0 2.6-0.1 5.2 0 1.4 0 2.7c-0.1 6.1-0.7 11.8-2.3 17.7q-0.5 0-1 0 0-2.9-0.1-5.9 0-1.6 0-3.3c0.1-2.8 0.1-2.8 1.1-4.8q0.1-3.4 0.1-6.8 0-1.8 0-3.6c-0.1-3.3-0.5-6.4-1.1-9.6z"/><path class="O" d="m223 94q0 0.5 0 1c-1.2 0.4-1.2 0.4-2.4 0.8-2.8 0.9-5.6 1.9-8.3 3.1-1.2 0.4-1.2 0.4-2.3 0.9-2.4 1.4-3 2.7-4 5.2q-0.5-1-1-2c4.1-8.6 9.2-9.6 18-9z"/><path class="P" d="m337 137c5.4 5.4 6.1 14.7 6.1 22.1q0 2.4-0.1 4.9-0.5 0-1 0-1.3-5.9-2.5-11.8c-0.4-1.7-0.4-1.7-0.7-3.4q-0.4-1.6-0.7-3.3-0.3-1.4-0.6-3c-0.5-2.5-0.5-2.5-0.5-5.5z"/><path class="Q" d="m299 212c2.5 8.9-1.4 19.4-4 28-1.2-3.5-0.8-6 0-9.6q0.3-1.6 0.7-3.3 0.4-1.6 0.7-3.4 0.4-1.6 0.8-3.4 0.9-4.1 1.8-8.3z"/><path class="R" d="m269 201q1.5 0 3 0-1.9 10.5-4 21-0.5 0-1 0c-0.3-7.2 0.5-13.9 2-21z"/><path class="S" d="m384 302c1.8 5.3 0.9 10-1.4 15q-2.2 4.1-4.6 8c-1.3-4-0.4-6.1 1-10q0.7-0.9 1.5-1.9c2.4-3.3 2.8-7.1 3.5-11.1z"/><path class="T" d="m382 132q0.5 0 1 0 0 3.2 0.1 6.4 0 1.8 0 3.7c-0.1 2.9-0.1 2.9-1.1 3.9-0.3 2.5-0.4 5.1-0.6 7.7-0.4 2.3-0.4 2.3-2.4 4.3-0.2-6 0.4-11.6 1.5-17.5q0.2-1.2 0.4-2.5 0.6-3 1.1-6z"/><path class="U" d="m398 230q0.5 0 1 0 0.1 3.3 0.2 6.6 0 1.9 0.1 3.8c-0.3 3.9-1.3 6.2-3.3 9.6-1.3-4.3-0.5-7.9 0.4-12.3q0.3-1.1 0.5-2.2 0.5-2.8 1.1-5.5z"/><path class="V" d="m219 204c4.4 7.8 4.2 15.2 4 24q-0.5 0-1 0-0.8-4.6-1.5-9.2-0.2-1.3-0.4-2.6c-0.7-4.1-1.3-8-1.1-12.2z"/><path class="W" d="m310 156q1 0 2 0c0.3 3.3 0.7 6.6 1 10q-1.5 0-3 0-1 2-2 4c1-9.4 1-9.4 2-14z"/><path class="X" d="m87 344q0.5 0 1 0c0 7.3 0 14.5 0 22-4-4-4-4-5-7q1.5 0.5 3 1c0.3-5.3 0.7-10.6 1-16z"/><path class="E" d="m225 91c2.6 1.5 2.6 1.5 4 3q-0.5 1-1 2-0.8-0.5-1.7-1c-2.5-1.1-4.1-1.2-6.8-1.2q-1.1 0-2.3 0c-2.2 0.2-4.1 0.6-6.2 1.2q0-1 0-2c4.5-2.3 9-2.6 14-2z"/><path class="F" d="m397 91c3.6 0 7.3 0 11 0q0 1 0 2 2 1 4 2c-3.2 0-6.1-0.5-9.2-1q-1.6-0.3-3.3-0.6c-1.2-0.2-1.2-0.2-2.5-0.4q0-1 0-2z"/><path class="Y" d="m311.9 90.6q1.3 0 2.6-0.1c2.5 0.5 2.5 0.5 6.5 4.5-5.3-0.7-10.6-1.3-16-2 2.5-2.5 3.4-2.3 6.9-2.4z"/><path class="Q" d="m236 303q0.5 0 1 0c1.3 5.9 2.6 11.9 4 18-4.9-4.9-5-7.8-5.1-14.4q0.1-1.8 0.1-3.6z"/><path class="Z" d="m399 94c9-0.8 9-0.8 13.1 2.4 1.9 2.6 1.9 2.6 2.9 4.6q-1.5-0.5-3-1 0-1 0-2-3 0-6 0 0-1 0-2c-2.3-0.3-4.6-0.7-7-1q0-0.5 0-1z"/><path class="a0" d="m241 321q0.8 1.1 1.6 2.2c2.6 3.1 5.3 5.3 8.4 7.8q1 1 2 2c-7.6-1.4-7.6-1.4-10.2-4.8-1.8-3.2-1.8-3.2-1.8-7.2z"/><path class="a1" d="m412 96q1.5 0 3 0c4.6 9.2 4.6 9.2 4 15q-0.5 0-1 0c-0.3-0.9-0.3-0.9-0.6-1.8-1.4-4.6-3.1-8.9-5.4-13.2z"/><path class="P" d="m285 126q0.5 0 1 0c-1 10.6-1 10.6-2 15q-0.5 0-1 0c-0.4-10.6-0.4-10.6 2-15z"/><path class="a2" d="m252 209q0.5 1.5 1 3 1 0 2 0c0 5.3 0 10.6 0 16q-0.5 0-1 0-0.5-3.3-1-6.7-0.3-1.8-0.6-3.7c-0.3-3-0.5-5.7-0.4-8.6z"/><path class="a3" d="m268 331q0 1 0 2c-3.5 2.4-4.6 2.1-8.7 1.6-1.5-0.1-1.5-0.1-3-0.3q-1.1-0.2-2.3-0.3 0-0.5 0-1c1-0.1 1-0.1 2.1-0.2q1.4-0.1 2.8-0.2 1.3-0.2 2.7-0.3c2.4-0.3 4-1.3 6.4-1.3z"/><path class="a4" d="m269 201q1.5 0 3 0c-0.7 3.6-1.3 7.3-2 11q-0.5 0-1 0c0-3.6 0-7.3 0-11z"/><path class="a5" d="m359 245c1 1.5 1 1.5 2 3q1 1 2 2c-0.4 3.1-0.4 3.1-1 6-2.4-2.4-2.3-3.3-2.6-6.6q-0.1-1.2-0.3-2.5 0-0.9-0.1-1.9z"/><path class="a6" d="m240 316c3.7 3.1 4.6 5.2 5 10-3.4-2.2-3.8-3.3-5-7q0-1.5 0-3z"/><path class="a7" d="m278 313q1 2 2 4c-0.8 2.1-0.8 2.1-2 4q-0.5 1-1 2-1 0-2 0c1-3.3 2-6.6 3-10z"/><path class="a8" d="m410 172q0.5 0 1 0c0.2 5.5-0.3 9.8-2 15q-0.5 0-1 0c-0.2-5.5 0.3-9.8 2-15z"/><path class="a9" d=""/><path class="a9" d=""/><path class="a9" d=""/><path class="a9" d=""/><path class="a9" d=""/><path class="a9" d=""/><path class="a9" d=""/><path class="a9" d=""/><path class="a9" d=""/><path class="a9" d=""/><path class="a9" d=""/><path class="a9" d=""/><path class="a9" d=""/><path class="a9" d=""/><path class="a9" d=""/><path class="a9" d=""/><path class="a9" d=""/><path class="a9" d=""/><path class="a9" d=""/><path class="a9" d=""/><path class="a9" d=""/><path class="a9" d=""/><path class="a9" d=""/><path class="a9" d=""/><path class="a9" d=""/><path class="a9" d=""/><path class="a9" d=""/><path class="a9" d=""/><path class="a9" d=""/><path class="aa" d=""/></svg>